<?xml version="1.0" encoding="utf-8"?>
<!DOCTYPE svg PUBLIC "-//W3C//DTD SVG 1.1//EN" "http://www.w3.org/Graphics/SVG/1.1/DTD/svg11.dtd">
<svg version="1.1" id="Ebene_1" xmlns="http://www.w3.org/2000/svg" xmlns:xlink="http://www.w3.org/1999/xlink" x="0px" y="0px"
	 width="407.5px" height="641.5px" viewBox="0 0 407.5 641.5" enable-background="new 0 0 407.5 641.5" xml:space="preserve">
<g id="Vordergrund">
	<path fill="#888888" d="M0.4,562.6c0-187.1,0-374.3,0-561.6c135.8,0,271.7,0,407.5,0c0,1.3-0.1,2.6-0.1,3.9
		c0,184.5,0,368.9,0,553.4c0,1.3,0,2.601,0,4.101c-1.601,0-2.9,0-4.2,0c-132.8,0-265.7,0-398.5,0C3.601,562.4,2,562.5,0.4,562.6z
		 M158.3,24.6c-1.1,12.2-7.1,21-19.6,22.1c-15.3,1.4-22.9-7.7-24.8-22.1c-8.4,0-16.5,0-25.101,0c0.4,3.7,0.5,7.3,1.301,10.7
		c4.1,16.9,14.399,28.5,30.8,34.6c2.1,0.8,2.6,1.8,2.6,3.8c-0.1,6.1,0,12.2,0,18.3c0,3.1,0,6.1,0,9.2
		c-59.3,6.9-104.8,61.5-96.6,124.4c6.6,50.8,48.5,93.1,104.899,95.7c28.101,1.3,53.4-7.4,75.001-25.5c25.3-21.2,38.6-48.7,39.8-81.6
		c0.8-22.1-4.7-42.9-16.7-61.6c-18.9-29.5-46-46.5-80.8-51.4c0-9.8-0.101-19.3,0.1-28.9c0-0.8,1.3-1.9,2.2-2.2
		c13.2-4.9,22.8-13.6,28.399-26.6c2.601-6,4.101-12.3,3.5-19.1C174.8,24.6,166.7,24.6,158.3,24.6z"/>
	<rect x="0.4" y="481.4" fill="#888888" width="407.5" height="161.1"/>
	<path d="M158.3,24.6c8.4,0,16.5,0,24.801,0c0.699,6.8-0.9,13-3.5,19.1c-5.601,13-15.2,21.6-28.4,26.6
		c-0.9,0.3-2.1,1.4-2.2,2.2c-0.1,9.5-0.1,19.1-0.1,28.9c34.8,4.9,61.9,21.9,80.8,51.4c12,18.7,17.5,39.5,16.7,61.6
		c-1.3,32.9-14.6,60.4-39.8,81.6c-21.601,18.1-46.9,26.8-75,25.5c-56.4-2.6-98.2-45-104.9-95.7c-8.2-63,37.2-117.5,96.6-124.4
		c0-3,0-6.1,0-9.2c0-6.1-0.1-12.2,0-18.3c0-2-0.5-3-2.6-3.8C104.4,64,94,52.5,89.9,35.5c-0.8-3.4-0.9-7-1.3-10.7
		c8.6,0,16.699,0,25.1,0c1.9,14.3,9.5,23.4,24.8,22.1C151.3,45.6,157.2,36.8,158.3,24.6z M52.5,224.2c3.3,19.5,11.8,35.8,26,48.8
		C97,290,119,297.6,144,295.4c42.3-3.7,80.7-40.7,76.601-91.9c-3.7-45.7-44.9-82.8-95.5-76.4c-43.2,5.5-69.601,42.1-71.9,70.8
		c0.2,0.1,0.3,0.2,0.5,0.2c11.8,0,23.6,0,35.4,0.1c1.699,0,2-0.9,2.399-2.1c4.7-13.8,14-23.4,27.4-28.9c5.399-2.2,11.1-3.6,17.2-3.2
		c0,4.4,0,8.5,0,12.6c0,4.2,0,8.4,0,12.5c-12.5,0.8-21,9.3-21.7,21.4c-0.3,4.4,1.1,8.6,3.6,12.4c4.2,6.5,10.601,9.3,18,10.2
		c0,8.6,0,16.9,0,25.6c-3.6-0.5-7-0.8-10.3-1.6c-16.8-4.3-28.2-14.6-34.1-30.9c-0.601-1.6-1.4-2-3-2c-7.7,0.1-15.4,0-23,0
		C61.2,224.2,57.101,224.2,52.5,224.2z"/>
	<path fill="#888888" d="M52.5,224.2c4.601,0,8.7,0,12.8,0c7.7,0,15.4,0,23,0c1.601,0,2.4,0.4,3,2c5.9,16.3,17.301,26.6,34.101,30.9
		c3.3,0.8,6.7,1.1,10.3,1.6c0-8.7,0-17,0-25.6c-7.4-0.9-13.7-3.7-18-10.2c-2.5-3.8-3.8-8-3.6-12.4
		c0.699-12.1,9.199-20.6,21.699-21.4c0-4.2,0-8.3,0-12.5c0-4.1,0-8.2,0-12.6c-6.199-0.4-11.8,0.9-17.199,3.2
		c-13.4,5.5-22.601,15.1-27.4,28.9c-0.4,1.2-0.7,2.1-2.4,2.1c-11.8-0.1-23.6-0.1-35.399-0.1c-0.2,0-0.3-0.1-0.5-0.2
		c2.3-28.7,28.7-65.3,71.899-70.8c50.601-6.4,91.801,30.7,95.501,76.4C224.5,254.7,186,291.7,143.7,295.4
		c-25,2.2-46.9-5.4-65.4-22.3C64.4,260,55.8,243.8,52.5,224.2z"/>
	<g>
		<path d="M58.3,362.9c-3-1.2-6.399-1.9-9.699-1.9c-7.301,0-13.2,4.8-13.2,13.8c0,8.4,4.8,13.3,12.6,13.3
			c2.101,0,3.9-0.3,5.601-0.899V374H59.5v17.1c-3.6,1.4-8,2.2-12.2,2.2c-11.3,0-18.3-6.8-18.3-18c0-11.3,7.601-19.5,20-19.5
			c3.5,0,7,0.5,10.2,1.601L58.3,362.9z"/>
		<path d="M88.601,379.8H71.5c-0.2,6.2,2.601,9,7.9,9c2.8,0,5.6-0.6,7.8-1.7l0.5,4.601c-2.7,1.1-6,1.7-9.3,1.7
			c-8.4,0-13-4.301-13-13.801c0-8.1,4.399-14.1,12.3-14.1c7.7,0,11,5.2,11,11.6C88.8,377.9,88.7,378.8,88.601,379.8z M77.601,369.8
			c-3.2,0-5.5,2.4-6,6H83C83.101,372.1,81,369.8,77.601,369.8z"/>
		<path d="M109,371.2c-5.3-1-7.899,2.8-7.899,10.8v10.9H95.3V366h5.5c0,1.5-0.199,3.9-0.5,5.9h0.101
			c1.2-3.601,3.899-7,8.899-6.5L109,371.2z"/>
		<path d="M147.5,392.9V375.8c0-3.3-0.8-5.5-3.899-5.5c-3.5,0-6.9,3.8-6.9,9.7v12.9H131v-17.2c0-3-0.6-5.4-3.899-5.4
			c-3.7,0-6.9,4.101-6.9,9.7v12.9h-5.8V366h5.5c0,1.4-0.101,3.7-0.4,5.2l0.101,0.1c1.6-3.6,4.899-5.8,9.1-5.8c5.3,0,7,3.4,7.5,5.8
			c1.1-2.6,4.1-5.8,9-5.8c5.1,0,8,2.8,8,8.9v18.5H147.5L147.5,392.9z"/>
		<path d="M175.9,392.9c0-1.7,0.1-3.5,0.3-5l-0.1-0.101c-1.301,3.2-4.601,5.601-8.9,5.601c-4.6,0-7.5-2.601-7.5-6.9
			c0-6.2,6.2-9.7,15.8-9.7v-1.7c0-3.3-1.399-5.1-5.6-5.1c-2.5,0-5.7,0.8-8,2.2l-0.5-4.9c2.6-1,6-1.8,9.5-1.8
			c8.2,0,10.5,3.6,10.5,9.1v11c0,2.301,0.1,5.101,0.2,7.301H175.9z M175.5,380.7c-8.399,0-10.3,2.5-10.3,4.899
			c0,2,1.4,3.301,3.7,3.301c3.899,0,6.6-3.801,6.6-7.601V380.7L175.5,380.7z"/>
		<path d="M206.7,392.9V375.6c0-3.3-0.899-5.3-4-5.3c-4.1,0-7,4.3-7,9.601v13h-5.8V366h5.5c0,1.4-0.101,3.7-0.4,5.2
			l0.101,0.1c1.6-3.5,4.8-5.8,9.3-5.8c6.101,0,8,3.8,8,8.6V392.9H206.7L206.7,392.9z"/>
		<path d="M40.7,456.1c-3.7,0-6.8-0.199-9.7-0.199v-36.4c2.9-0.1,7.101-0.2,11.3-0.2c11.5,0,18.601,5.2,18.601,17.9
			C60.9,449.7,52.601,456.1,40.7,456.1z M41.9,424.1c-1.8,0-3.7,0.101-5,0.2v26.5c1.2,0.2,3,0.3,4.399,0.3
			c7.801,0,13.301-4.199,13.301-13.5C54.601,428.9,50.8,424.1,41.9,424.1z"/>
		<path d="M88.3,442.8H71.2c-0.2,6.2,2.6,9,7.9,9c2.8,0,5.6-0.6,7.8-1.7l0.5,4.601c-2.7,1.1-6,1.7-9.3,1.7
			c-8.4,0-13-4.301-13-13.801c0-8.1,4.399-14.1,12.3-14.1c7.7,0,11,5.2,11,11.6C88.4,440.9,88.4,441.8,88.3,442.8z M77.3,432.8
			c-3.199,0-5.5,2.4-6,6h11.4C82.8,435.1,80.7,432.8,77.3,432.8z"/>
		<path d="M99.4,456.4c-2,0-4-0.2-5.7-0.5l0.2-4.9c1.7,0.5,3.8,0.9,5.8,0.9c3.1,0,5.3-1.4,5.3-3.601
			c0-5.399-11.8-2.2-11.8-11.399c0-4.601,3.8-8.301,11.1-8.301c1.601,0,3.4,0.2,5,0.5l-0.199,4.7c-1.601-0.5-3.5-0.8-5.2-0.8
			c-3.2,0-4.8,1.3-4.8,3.3c0,5.2,11.899,2.5,11.899,11.4C111.101,452.7,106.601,456.4,99.4,456.4z"/>
		<path d="M120.601,425c-2.101,0-3.7-1.6-3.7-3.6s1.7-3.601,3.7-3.601s3.699,1.601,3.699,3.601
			S122.601,425,120.601,425z M117.7,455.9V429h5.8v26.8h-5.8V455.9z"/>
		<path d="M141.2,469.7c-7,0-11.4-2.7-11.4-7.9c0-3,2-5.6,4.301-6.8c-1.601-0.8-2.601-2.2-2.601-4
			c0-1.9,1.2-3.8,3.101-4.6c-2.601-1.5-4-4.2-4-7.601c0-5.7,4.3-10.399,12-10.399c1.6,0,3,0.199,4.399,0.5h9.101v4.5H152
			c1.101,0.899,1.8,2.5,1.8,4.5c0,5.8-4,9.899-11.6,9.899c-1,0-2.3-0.1-3.1-0.3c-1.101,0.4-1.601,1.2-1.601,2c0,1.4,1.2,1.9,4.4,1.9
			h4.6c5.8,0,9.101,2.8,9.101,7.8C155.601,465.1,149.8,469.7,141.2,469.7z M144.9,456.3h-5c-0.5,0-1,0-1.5-0.1c-1.8,1-3,2.6-3,4.5
			c0,2.899,2.7,4.5,6.6,4.5c5,0,7.8-2.2,7.8-5.101C149.9,457.8,148.3,456.3,144.9,456.3z M142.2,432.8c-3.8,0-6.1,2.3-6.1,5.601
			c0,3.5,2.199,5.6,6,5.6c3.6,0,6-2,6-5.5C148.2,434.9,146,432.8,142.2,432.8z"/>
		<path d="M178.7,455.9V438.6c0-3.3-0.9-5.3-4-5.3c-4,0-7,4.3-7,9.601v13h-5.8V429h5.5c0,1.4-0.101,3.7-0.4,5.2
			l0.101,0.1c1.6-3.5,4.8-5.8,9.3-5.8c6.1,0,8,3.8,8,8.6V455.9H178.7z"/>
		<path d="M227.101,455.9l-2.8-8h-14.7l-2.8,8h-5.9l13.101-36.5h6.5l13.199,36.5H227.101z M218.5,431.7
			c-0.699-1.9-1.199-3.601-1.6-5.601h-0.1c-0.4,1.801-1,3.801-1.7,5.801L211,443.2h11.7L218.5,431.7z"/>
		<path d="M267.301,455.9H261l-4.6-14c-0.6-1.801-1.1-3.601-1.6-5.7H254.7c-0.5,2.399-1.1,4.5-1.8,6.8l-4,13h-6.1
			l-8.301-26.8h6.301l3.6,12.5c0.7,2.5,1.5,5.1,2,7.5h0.1c0.5-2.601,1.2-5,1.9-7.3l4-12.601h5.8l4,12.4c1,3.2,1.601,5.2,2.101,7.6
			h0.1c0.5-2.5,1.1-4.6,1.9-7.3L270,429.3h6L267.301,455.9z"/>
		<path d="M294.2,455.9c0-1.7,0.101-3.5,0.3-5l-0.1-0.101c-1.3,3.2-4.6,5.601-8.9,5.601c-4.6,0-7.5-2.601-7.5-6.9
			c0-6.2,6.2-9.7,15.801-9.7v-1.7c0-3.3-1.4-5.1-5.601-5.1c-2.5,0-5.7,0.8-8,2.2l-0.5-4.9c2.601-1,6-1.8,9.5-1.8
			c8.2,0,10.5,3.6,10.5,9.1v11c0,2.301,0.101,5.101,0.2,7.301H294.2L294.2,455.9z M293.801,443.7c-8.4,0-10.301,2.5-10.301,4.899
			c0,2,1.4,3.301,3.7,3.301c3.9,0,6.601-3.801,6.601-7.601V443.7L293.801,443.7z"/>
		<path d="M321.9,434.2c-5.3-1-7.9,2.8-7.9,10.8v10.9h-5.8V429h5.5c0,1.5-0.2,3.9-0.5,5.9h0.101
			c1.2-3.601,3.899-7,8.899-6.5L321.9,434.2z"/>
		<path d="M343.101,455.9c0-1.4,0.1-3.5,0.399-5h-0.1c-1.5,3.3-4.6,5.6-8.7,5.6c-6.6,0-9.899-4.9-9.899-12.6
			c0-9.2,5.3-15.2,14-15.2c1.3,0,2.6,0.1,4.1,0.2v-12.4h5.7v39.4H343.101z M342.801,433.7c-1.5-0.3-2.9-0.5-4.301-0.5
			c-4.6,0-7.699,2.8-7.699,10c0,5.399,1.699,8.399,5.3,8.399c4.3,0,6.6-5.1,6.6-9.699v-8.2H342.801z"/>
		<path d="M30,543.4c1.8,1.199,4.601,2.1,7.5,2.1c4.5,0,7.2-2.5,7.2-6.2c0-3.3-1.9-5.3-6.3-7.3
			c-5-2.1-8.8-5.3-8.8-10.3c0-5.601,4.5-9.8,11.199-9.8c3.2,0,5.801,0.8,7.101,1.6l-1.2,3.8c-1.1-0.6-3.3-1.6-6.2-1.6
			c-4.5,0-6.399,2.899-6.399,5.3c0,3.5,2.1,5.1,6.6,7.1c5.7,2.601,8.4,5.7,8.4,10.7c0,5.8-4.2,10.4-12,10.4c-3.2,0-6.7-1-8.4-2.101
			L30,543.4z"/>
		<path d="M55.101,512.9c2.1-0.4,4.8-0.7,8.199-0.7c4.2,0,7.5,1,9.601,2.899c1.899,1.7,3,4.4,3,7.601
			c0,3.3-0.9,5.8-2.601,7.7c-2.3,2.699-6.199,4.1-10.399,4.1c-1.2,0-2.3-0.1-3.2-0.3v14.7h-4.5v-36H55.101z M59.7,530.5
			c0.9,0.3,1.9,0.3,3.2,0.3c5.2,0,8.399-2.8,8.399-7.8c0-4.5-2.899-7.2-7.899-7.2c-1.7,0-3,0.2-3.8,0.3v14.4H59.7z"/>
		<path d="M98.8,531.7H86.2V545h14.1v3.8H81.601V512.4H99.5v3.8H86.101V528h12.6v3.7H98.8z"/>
		<path d="M128.601,547.8c-1.5,0.8-4.5,1.5-8.301,1.5c-9.3,0-16.3-6.3-16.3-18.3c0-12.3,7.601-19.1,17.2-19.1
			c3.8,0,6.3,0.8,7.4,1.399L127.5,517c-1.5-0.8-3.5-1.3-6.2-1.3c-7.1,0-12.5,5-12.5,15c0,9.6,4.801,14.7,12.301,14.7
			c2.5,0,5-0.5,6.5-1.3L128.601,547.8z"/>
		<path d="M138.5,512.5v36.4H134v-36.4H138.5z"/>
		<path d="M151.7,537.6l-3.3,11.301H143.8l11.2-36.4h5.3l11.101,36.4h-4.7l-3.5-11.301H151.7z M162.3,534l-3.1-10.1
			c-0.7-2.4-1.2-4.9-1.7-7.101h-0.2c-0.5,2.3-1.1,4.8-1.699,7.101L152.5,534.1h9.8V534z"/>
		<path d="M176.4,512.5h4.5V545H194.8v3.8h-18.5v-36.3H176.4z"/>
		<path d="M58.8,596c-0.3-5-0.6-10.9-0.5-15.3h-0.199C57,584.9,55.601,589.4,54,594.1l-5.899,17.5h-3.2l-5.5-17.1
			c-1.601-5-2.9-9.6-3.8-13.9h-0.2c-0.101,4.5-0.3,10.2-0.601,15.601L33.9,611.8h-4.3L32,575.4h5.601l5.6,17.3
			c1.4,4.5,2.5,8.399,3.5,12.3h0.1c0.9-3.8,2.101-7.7,3.5-12.3l5.801-17.3h5.6l2.2,36.399h-4.4L58.8,596z"/>
		<path d="M87.9,594.7H75.3V608H89.4v3.8H70.7V575.4h17.9v3.8H75.2V591h12.6v3.7H87.9z"/>
		<path d="M95,611.9v-36.4h4.8l10.2,18c2.3,4.2,4.4,8.3,5.9,12.1h0.1c-0.399-5.1-0.5-9.699-0.5-15.5v-14.6h4.2v36.4
			h-4.5L105,593.8c-2.2-4-4.399-8.1-6-12.3l-0.2,0.1c0.301,4.7,0.4,9.101,0.4,15.7V612H95V611.9z"/>
		<path d="M133.601,579.4H123.8v-3.9H147.9v3.9h-9.8v32.5h-4.5V579.4z"/>
		<path d="M156.5,575.5v36.4H152v-36.4H156.5z"/>
		<path d="M191.7,593.3c0,12.8-6.7,19.101-15,19.101c-8.6,0-14.5-7.2-14.5-18.5c0-11.7,6.3-19,15-19
			C186.101,574.9,191.7,582.3,191.7,593.3z M167,593.8c0,7.7,3.4,14.8,10,14.8c6.601,0,9.9-7.199,9.9-15.1c0-7.1-3-14.8-9.9-14.8
			C170.101,578.7,167,586.1,167,593.8z"/>
		<path d="M197.5,611.9v-36.4h4.801l10.199,18c2.301,4.2,4.4,8.3,5.9,12.1h0.1c-0.399-5.1-0.5-9.699-0.5-15.5v-14.6
			h4.2v36.4h-4.5L207.5,593.8c-2.199-4-4.399-8.1-6-12.3l-0.199,0.1c0.3,4.7,0.399,9.101,0.399,15.7V612h-4.2V611.9z"/>
	</g>
</g>
</svg>
