<?xml version="1.0" encoding="utf-8"?>
<svg version="1.1" id="Laag_1" xmlns="http://www.w3.org/2000/svg" xmlns:xlink="http://www.w3.org/1999/xlink" x="0px" y="0px"
	width="224.3" height="193.1"
	 viewBox="0 0 224.3 193.1" style="enable-background:new 0 0 224.3 193.1;" xml:space="preserve">
<style type="text/css">
	.st0{fill:url(#SVGID_1_);}
	.st1{fill:url(#SVGID_2_);}
	.st2{fill:url(#SVGID_3_);}
	.st3{fill:url(#SVGID_4_);}
	.st4{fill:url(#SVGID_5_);}
	.st5{fill:#888888;}
</style>
<g>

		<radialGradient id="SVGID_1_" cx="92.7454" cy="201.7206" r="40.1099" gradientTransform="matrix(0.9983 0 0 0.9983 -0.136 -130.3486)" gradientUnits="userSpaceOnUse">
		<stop  offset="0" style="stop-color:#000000"/>
		<stop  offset="1" style="stop-color:#FFFFFF"/>
	</radialGradient>
	<path fill="#FFFFFF" class="st0" d="M107,78.5c0.1,2-0.5,4-1.8,6.7c-1.1,2.2-3,4-4.8,6.2c-1.8,2.3-4.1,4.4-6.6,6.3s-4.7,3.8-7.6,5.1
		c-2.9,1.3-5.5,2.7-8,3s-4.7,0.1-6.5-0.5s-3.2-1.6-4.2-3c-0.9-1.4-1.4-3.1-1.3-5.2c0.1-2,0.7-4.2,1.7-6.4c1-2.2,2.5-4.4,4.2-6.4
		c1.8-2.1,3.8-4.1,6.1-5.8c2.3-1.8,4.8-3.3,7.5-4.6c2.7-1.3,5.3-2.1,7.6-2.5c2.4-0.4,4.6-0.4,6.5,0s3.6,1.1,4.7,2.3
		C105.8,74.8,106.8,76.4,107,78.5z M97.9,86.5c0-1-0.4-1.8-0.9-2.4s-1.3-1-2.2-1.3c-0.9-0.2-1.9-0.3-3.1-0.1
		c-1.2,0.2-2.4,0.6-3.7,1.2c-1.3,0.6-2.6,1.4-3.7,2.2c-1.1,0.9-2.1,1.8-3,2.9c-0.9,1-1.5,2.1-2,3.2s-0.7,2.1-0.8,3.1
		c0,1,0.3,1.8,0.7,2.5c0.5,0.6,1.2,1.1,2.1,1.4s1.9,0.3,3.1,0.2c1.2-0.1,2.5-0.5,3.8-1.1c1.4-0.6,2.7-1.4,3.8-2.3
		c1.2-0.9,2.2-1.9,3.1-3s1.6-2.2,2-3.3C97.7,88.5,98,87.4,97.9,86.5z"/>

		<linearGradient id="SVGID_2_" gradientUnits="userSpaceOnUse" x1="1718.403" y1="-1436.3999" x2="1718.403" y2="-1394.8494" gradientTransform="matrix(1 0 0 1 -1692 1439.6504)">
		<stop  offset="0" style="stop-color:#FFFFFF"/>
		<stop  offset="1" style="stop-color:#000000"/>
	</linearGradient>
	<path fill="#FFFFFF" class="st1" d="M32.9,8c-7.5,4.7-12,7.1-17.5,13.9c-2.2,2.7-3.5,4.2-5,7.4c-0.8,1.6-1.7,4.1-1.7,4.1l-0.4,2.9l-0.6,3.9
		l-0.3,3.5v1.2c0-0.3,0-0.6,0.1-0.9c0-0.3,0.1-0.6,0.1-0.9c0-0.3,0.1-0.6,0.2-1c0.1-0.3,0.1-0.7,0.2-1c0.9-3.5,2.4-7.1,4.9-11.1
		c2.7-4.5,4.7-6.8,8.4-10.4s6.1-6.2,10.6-9.5c2.7-2,9.3-6.1,13.2-6.7c1.6-0.2-3.5,0.2-5.5,1.1C36.9,5.7,35.4,6.4,32.9,8z"/>
	<path fill="#FFFFFF" d="M87.4,11l-2.9-3l-3-2.7L80,4.2l-3.5-1.4c-1.9-0.6-4.2-1.5-6.7-1.8c-2.4-0.3-6.1-0.8-9-0.2S56,2.1,52.7,3.5
		C49.4,4.9,46,6.7,42.5,8.8c-4.9,3-9.6,6.5-13.9,10.3s-8.3,7.9-11.7,12c-3.5,4.2-6.5,8.6-8.7,12.8c-2.3,4.3-3.3,8.6-3.9,12.5
		c-0.1,0.8,0,1.5-0.1,2.2s0.6,5.2,1.4,8.5c0.3,1.4,0.5,2.2,1,3.6c0.5,1.6,1.7,4,1.7,4l0.6,1l1.3,2.1c-0.5-0.7-0.9-1.5-1.2-2.4
		c-0.3-0.9-0.6-1.8-0.7-2.8c-0.2-1-0.2-2-0.2-3.1s0.1-2.2,0.3-3.4c0.6-4.2,2.2-8.8,4.6-13.3c2.3-4.5,5.4-9.1,9-13.6
		c3.6-4.4,7.7-8.7,12.2-12.7s9.4-7.6,14.6-10.7c4.2-2.5,8.2-4.5,12.1-6s7.5-2.5,10.9-2.9s6.5-0.3,9.1,0.3C83.5,7.9,85.8,9.2,87.4,11
		L87.4,11z"/>

		<radialGradient id="SVGID_3_" cx="1753.8639" cy="-1438.266" r="92.5491" gradientTransform="matrix(0.9983 0 0 0.9983 -1689.2609 1437.0936)" gradientUnits="userSpaceOnUse">
		<stop  offset="0" style="stop-color:#000000"/>
		<stop  offset="1" style="stop-color:#FFFFFF"/>
	</radialGradient>
	<path fill="#FFFFFF" class="st2" d="M87.4,11l-2.9-3l-3-2.7L80,4.2l-3.5-1.4c-1.9-0.6-4.2-1.5-6.7-1.8c-2.4-0.3-6.1-0.8-9-0.2S56,2.1,52.7,3.5
		C49.4,4.9,46,6.7,42.5,8.8c-4.9,3-9.6,6.5-13.9,10.3s-8.3,7.9-11.7,12c-3.5,4.2-6.5,8.6-8.7,12.8c-2.3,4.3-3.3,8.6-3.9,12.5
		c-0.1,0.8,0,1.5-0.1,2.2s0.6,5.2,1.4,8.5c0.3,1.4,0.5,2.2,1,3.6c0.5,1.6,1.7,4,1.7,4l0.6,1l1.3,2.1c-0.5-0.7-0.9-1.5-1.2-2.4
		c-0.3-0.9-0.6-1.8-0.7-2.8c-0.2-1-0.2-2-0.2-3.1s0.1-2.2,0.3-3.4c0.6-4.2,2.2-8.8,4.6-13.3c2.3-4.5,5.4-9.1,9-13.6
		c3.6-4.4,7.7-8.7,12.2-12.7s9.4-7.6,14.6-10.7c4.2-2.5,8.2-4.5,12.1-6s7.5-2.5,10.9-2.9s6.5-0.3,9.1,0.3C83.5,7.9,85.8,9.2,87.4,11
		L87.4,11z"/>
	<path fill="#FFFFFF" d="M105.8,33.7l-4.7-12.4l-1.2-2.7c-1.6-2.8-4.3-4.6-7.4-5.7c-3-1.1-8.4-1-12.4-0.6c-3.9,0.4-8.3,1.5-12.8,3.3
		c-4.5,1.8-9.3,4.3-14.1,7.4c-5.4,3.5-10.5,7.6-15.1,12s-8.8,9.1-12.3,13.9c-3.6,4.8-6.5,9.8-8.7,14.7s-3.5,9.8-3.8,14.2
		c-0.1,1.7,0,3.2,0.2,4.7s0.6,2.8,1.1,4s1.2,2.4,2,3.4c0.8,1,1.7,1.9,2.8,2.6l3.7,2.4l3.5,1.9l3.9,1.7l3.5,1.2
		c-1.7-0.5-3.2-1.3-4.5-2.2c-1.3-0.9-2.4-2.1-3.2-3.4c-0.9-1.3-1.5-2.9-1.9-4.6s-0.6-3.6-0.5-5.6c0.1-4.2,1.3-8.7,3.2-13.4
		c1.9-4.6,4.6-9.2,7.9-13.8c3.3-4.5,7.1-8.9,11.4-13s9-7.8,14.1-11.1c5.1-3.2,10-5.7,14.7-7.3c4.7-1.6,10.9-2.8,14.8-2.8
		c4,0,7.5,0.9,10.2,2.7c2.8,1.9,3.3,5,4.3,8.7L105.8,33.7z"/>

		<radialGradient id="SVGID_4_" cx="1769.4065" cy="-1426.6917" r="103.8633" gradientTransform="matrix(0.9983 0 0 0.9983 -1689.2609 1437.0936)" gradientUnits="userSpaceOnUse">
		<stop  offset="0" style="stop-color:#000000"/>
		<stop  offset="1" style="stop-color:#FFFFFF"/>
	</radialGradient>
	<path fill="#FFFFFF" class="st3" d="M105.8,33.7l-4.7-12.4l-1.2-2.7c-1.6-2.8-4.3-4.6-7.4-5.7c-3-1.1-8.4-1-12.4-0.6c-3.9,0.4-8.3,1.5-12.8,3.3
		c-4.5,1.8-9.3,4.3-14.1,7.4c-5.4,3.5-10.5,7.6-15.1,12s-8.8,9.1-12.3,13.9c-3.6,4.8-6.5,9.8-8.7,14.7s-3.5,9.8-3.8,14.2
		c-0.1,1.7,0,3.2,0.2,4.7s0.6,2.8,1.1,4s1.2,2.4,2,3.4c0.8,1,1.7,1.9,2.8,2.6l3.7,2.4l3.5,1.9l3.9,1.7l3.5,1.2
		c-1.7-0.5-3.2-1.3-4.5-2.2c-1.3-0.9-2.4-2.1-3.2-3.4c-0.9-1.3-1.5-2.9-1.9-4.6s-0.6-3.6-0.5-5.6c0.1-4.2,1.3-8.7,3.2-13.4
		c1.9-4.6,4.6-9.2,7.9-13.8c3.3-4.5,7.1-8.9,11.4-13s9-7.8,14.1-11.1c5.1-3.2,10-5.7,14.7-7.3c4.7-1.6,10.9-2.8,14.8-2.8
		c4,0,7.5,0.9,10.2,2.7c2.8,1.9,3.3,5,4.3,8.7L105.8,33.7z"/>
	<path fill="#FFFFFF" d="M109.5,59.3c0.3-0.9,2.3-1.6,2.5-2.5c0.3-0.9,0.5-1.9,0.7-2.8c0.2-0.9,0.7-6.1,0.8-7c-0.2-0.6-0.1-1.1-0.4-1.6
		c-1.4-2.7-2.8-3.7-5.1-5.2c-2.7-1.8-7.7-2.9-11.6-3c-3.8-0.1-8.2,0.7-12.8,2.2c-4.6,1.5-9.4,3.8-14.4,6.9
		c-4.9,3.1-9.5,6.6-13.6,10.5c-4.1,3.8-7.8,8-10.9,12.2c-3.1,4.3-5.6,8.7-7.3,12.9c-1.7,4.3-2.7,8.6-2.6,12.4c0,2.4,0.5,4.6,1.2,6.5
		c0.8,1.9,1.9,3.5,3.4,4.8s3.3,2.4,5.4,2.8c2.2,0.5,4.4,0.9,7.2,1h0.6l4.1-0.3l4-0.5l2-0.4l3.7-0.8l3.6-1l1-0.3l3.2-1.2l0.7-0.3
		c-3.7,1.5-7.3,2.4-10.5,2.8c-3.2,0.3-6,0-8.3-0.8s-4.2-2.2-5.5-4s-2.1-4.1-2.2-6.9c-0.1-3.1,0.5-6.5,1.8-10c1.3-3.4,3.2-7,5.7-10.4
		c2.4-3.4,5.4-6.8,8.7-9.9c3.3-3.1,7-5.9,11-8.4c4-2.4,7.9-4.2,11.6-5.4s7.2-1.7,10.3-1.5c3.1,0.2,5.8,1,7.9,2.5
		C107.3,54.1,108.9,56.4,109.5,59.3L109.5,59.3z"/>

		<radialGradient id="SVGID_5_" cx="1781.3953" cy="-1401.5741" r="92.3062" gradientTransform="matrix(0.9983 0 0 0.9983 -1689.2609 1437.0936)" gradientUnits="userSpaceOnUse">
		<stop  offset="0" style="stop-color:#000000"/>
		<stop  offset="1" style="stop-color:#FFFFFF"/>
	</radialGradient>
	<path fill="#FFFFFF" class="st4" d="M109.5,59.3c0.3-0.9,2.3-1.6,2.5-2.5c0.3-0.9,0.5-1.9,0.7-2.8c0.2-0.9,0.7-6.1,0.8-7c-0.2-0.6-0.1-1.1-0.4-1.6
		c-1.4-2.7-2.8-3.7-5.1-5.2c-2.7-1.8-7.7-2.9-11.6-3c-3.8-0.1-8.2,0.7-12.8,2.2c-4.6,1.5-9.4,3.8-14.4,6.9
		c-4.9,3.1-9.5,6.6-13.6,10.5c-4.1,3.8-7.8,8-10.9,12.2c-3.1,4.3-5.6,8.7-7.3,12.9c-1.7,4.3-2.7,8.6-2.6,12.4c0,2.4,0.5,4.6,1.2,6.5
		c0.8,1.9,1.9,3.5,3.4,4.8s3.3,2.4,5.4,2.8c2.2,0.5,4.4,0.9,7.2,1h0.6l4.1-0.3l4-0.5l2-0.4l3.7-0.8l3.6-1l1-0.3l3.2-1.2l0.7-0.3
		c-3.7,1.5-7.3,2.4-10.5,2.8c-3.2,0.3-6,0-8.3-0.8s-4.2-2.2-5.5-4s-2.1-4.1-2.2-6.9c-0.1-3.1,0.5-6.5,1.8-10c1.3-3.4,3.2-7,5.7-10.4
		c2.4-3.4,5.4-6.8,8.7-9.9c3.3-3.1,7-5.9,11-8.4c4-2.4,7.9-4.2,11.6-5.4s7.2-1.7,10.3-1.5c3.1,0.2,5.8,1,7.9,2.5
		C107.3,54.1,108.9,56.4,109.5,59.3L109.5,59.3z"/>
	<path fill="#FFFFFF" d="M64.2,7.2c-0.5,1.8-1.7,3.7-3.5,5.6s-4,3.9-6.7,5.8s-5.7,3.6-8.9,5.2c-3.2,1.5-6.6,2.8-10.1,3.8c-3.4,0.9-6.5,1.5-9.1,1.6
		s-4.8-0.2-6.4-0.8c-1.6-0.6-2.7-1.6-3.2-2.9c-0.5-1.2-0.3-2.8,0.5-4.6c0.2-0.5,0.5-1.1,0.9-1.6c0.3-0.5,0.7-1.1,1.2-1.7
		c0.4-0.6,0.9-1.1,1.5-1.7c0.5-0.6,1.1-1.1,1.7-1.7l1.6-1.4l1.6-1.3l1.5-1.1l1.5-1.1l1.5-1l1.4-0.9l1.4-0.8c0,0-2.9,2.2-4.3,4
		c-0.8,1-1.5,1.9-1.8,2.8c-0.4,0.9-0.4,1.6-0.1,2.2c0.3,0.6,0.8,1,1.7,1.3c0.8,0.3,1.9,0.4,3.2,0.3s2.8-0.3,4.5-0.8
		c1.7-0.5,3.3-1.1,4.9-1.9s3.1-1.6,4.4-2.5c1.3-0.9,2.4-1.8,3.3-2.8c0.9-0.9,1.5-1.9,1.8-2.7c0.3-0.9,0.3-1.6-0.1-2.1
		c-0.3-0.6-1-1-1.8-1.2C47.4,3,46.4,3,45.1,3.3c-1.2,0.2-2.7,0.3-4.3,0.8c-1,0.3-1.6,0.5-2.6,1c3-1.6,4.8-2.3,8.1-3.3
		c2.1-0.7,3.5-1,5.5-1.4C54,0,55.9,0,57.6,0.2c1.7,0.1,3.2,0.5,4.3,1.1c1.1,0.6,2,1.4,2.4,2.4C64.6,4.6,64.6,5.8,64.2,7.2z"/>
	<path fill="#FFFFFF" d="M106.4,82.4c0,0-0.7,2-1.4,3.2c-0.6,1.1-1.9,2.7-1.9,2.7s-0.4,0.5-0.7,0.9c-0.8,1-2,2.4-2,2.4l-1.7,1.8
		c-1.7,1.8-3.7,3.5-5.9,5.2c-2.2,1.6-4.6,3.2-7.1,4.5c-2.5,1.4-5.2,2.6-7.9,3.6c-2.7,1-5.6,1.9-8.4,2.5c-0.6,0.1-1.1,0.2-1.7,0.3
		c-0.5,0.1-1.1,0.2-1.6,0.3c-0.5,0.1-1.1,0.1-1.6,0.2s-1,0.1-1.5,0.1l-3.1,0.1h-0.7l-3.3-0.1l-3.4-0.3c0,0-0.6-0.1-0.9-0.1
		c-1.4-0.2-2.2-0.3-3.6-0.6c-1.4-0.3-3.6-0.9-3.6-0.9l-1.8-0.6l-0.5-0.2c1.3,0.5,2.9,1,4.6,1.2c1.7,0.3,3.4,0.4,5.3,0.4
		s3.9-0.1,6-0.3c2.1-0.2,4.3-0.6,6.5-1c5.2-1.1,10.3-2.8,15.2-5c4.9-2.2,9.4-4.8,13.5-7.7c4.1-2.9,7.6-6,10.5-9.3
		C104.7,84.6,105.5,83.6,106.4,82.4C106.4,82.3,106.4,82.4,106.4,82.4z"/>
	<path fill="#FFFFFF" d="M76.6,2.8l3.6,1.4l3.6,1.6l1.3,0.7c1,0.5,1.9,1.1,2.6,1.8s1.3,1.5,1.8,2.4s0.7,1.9,0.9,2.9c0.1,1.1,0.1,2.2-0.2,3.5
		c-0.7,3.3-2.6,6.8-5.5,10.4c-3,3.6-7,7.3-11.7,10.8c-4.8,3.5-10.3,6.8-16.2,9.6c-5.9,2.8-12.2,5.1-18.4,6.8
		c-5.6,1.4-10.7,2.2-15.1,2.3s-8-0.4-10.9-1.5c-2.8-1-4.9-2.6-6.1-4.6c-1.2-1.9-1.5-4.3-1-7l0.3-1.2l1-3.8l1.3-3.7l1.3-3.1l1.2-2.6
		L10.2,30c0-0.1-0.1,0.1-0.1,0.1c-1.2,2.6-1.4,4.8-0.8,6.6c0.6,1.9,2.1,3.4,4.4,4.4s5.4,1.5,9.1,1.5c3.8-0.1,8.2-0.7,13.2-2.1
		c5-1.3,10-3.2,14.7-5.5c4.7-2.2,9.1-4.8,13-7.6c3.8-2.7,7.1-5.6,9.5-8.5c2.4-2.8,4.1-5.6,4.7-8.2c0.3-1.3,0.4-2.5,0.2-3.6
		c-0.2-1.1-0.7-2-1.3-2.8c-0.7-0.8-1.6-1.5-2.6-2c-0.7-0.4-1.5-0.7-2.4-0.9L70.5,1c0.6,0.1,0.9,0.1,1.3,0.3c0,0,1.3,0.3,2.1,0.6
		C74.8,2.2,76.6,2.8,76.6,2.8z"/>
	<path fill="#FFFFFF" d="M100.7,19l2.7,3.4l2.4,3.6l1.1,1.9c0.3,0.6,0.6,1.2,0.8,1.8c0.2,0.6,0.4,1.3,0.5,2c0.1,0.7,0.2,1.4,0.2,2.2
		c0,0.7,0,1.5-0.1,2.3c-0.5,4.2-2.6,8.6-5.9,13.1c-3.4,4.6-8.1,9.2-13.7,13.5c-5.7,4.4-12.3,8.4-19.4,11.8S54.6,80.7,47,82.5
		c-5.4,1.3-10.4,2-15,2.1c-4.5,0.2-8.5-0.2-11.9-1s-6.1-2-8.3-3.6c-2.1-1.6-3.6-3.5-4.5-5.8l-0.9-2.5l-1.2-4.2l-0.8-4.2l-0.2-1.2
		L4,59.7c0-0.2,0,0,0,0C4.3,62,5.3,64,6.8,65.6c1.8,1.9,4.3,3.3,7.5,4.2c3.3,1,7.3,1.4,11.9,1.3c4.7-0.1,9.9-0.9,15.6-2.3
		c7.2-1.8,14.3-4.4,21-7.6c6.7-3.2,13-7,18.4-11.1c5.4-4,9.8-8.3,13.1-12.5c3.2-4.2,5.3-8.3,5.9-12.1c0.2-1.1,0.2-2.1,0.2-3
		c-0.1-1-0.2-1.9-0.5-2.7c-0.3-0.8-0.7-1.6-1.1-2.4c-0.3-0.5-0.6-0.9-1-1.3l0,0l2.2,2.4L100.7,19z"/>
	<path fill="#FFFFFF" d="M114,50.7c0.3,3.4,0.4,5.4-0.1,8.8c-0.9,5.3-2.2,8.4-5.2,12.6c-3,4.4-7.2,8.7-12.2,12.7c-5.1,4.1-11,7.8-17.4,10.8
		c-6.4,3.1-13.3,5.5-20.2,7c-3.6,0.8-7,1.3-10.2,1.5s-6.1,0.2-8.9-0.1c-2.7-0.3-5.1-0.8-7.3-1.5c-2.1-0.7-4-1.7-5.6-2.8l-3.3-2.6
		l-2.8-2.5c0,0-1.9-1.9-3-3.1c-0.8-0.9-1.9-2.4-1.9-2.4c-0.2-0.2,0,0,0,0c1.3,1.5,2.9,2.7,4.8,3.8c2.3,1.2,5.1,2.1,8.3,2.7
		s6.9,0.8,10.9,0.6c4-0.2,8.4-0.8,13.1-1.8c7.5-1.7,15-4.3,22-7.7c7-3.3,13.5-7.4,19-11.7c5.5-4.3,10.1-8.9,13.3-13.6
		c3.2-4.5,5.2-9.1,5.7-13.3c0.1-0.5,0.1-0.9,0.1-1.4c0-0.4-0.1-0.9-0.1-1.3c0-0.4,0.6,1.9,0.6,1.9S113.9,49.3,114,50.7z"/>
</g>
<g>
	<path fill="#FFFFFF" d="M13.9,142.3h3.9v4.7h0.1c1.2-2.5,2.6-4.8,5.9-5.1v4.1c-3.7,0.1-6,1.4-6,6.3v8.4h-3.9V142.3z"/>
	<path fill="#FFFFFF" d="M39.9,160c-1.6,0.7-3,1-5.4,1c-5.1,0-9.2-3-9.2-10.4c0-5.1,2-8.8,7.8-8.8c5.9,0,7.1,4,7.1,7.5h-11c0,3.6,1.6,9.6,7.1,9.6
		c1.2,0,2.4-0.2,3.5-0.8V160z M36.4,147.6c0-1.4-0.5-4.1-3.4-4.1c-3,0-3.6,3.1-3.7,4.1H36.4z"/>
	<path fill="#FFFFFF" d="M55,157.6L55,157.6c-0.6,1.2-1.9,3.4-4.9,3.4c-5.3,0-6.9-4.3-6.9-9.6c0-5.5,2-9.6,6.9-9.6c3.1,0,4.2,2,4.8,3H55V134h3.9
		v26.6H55V157.6z M51.2,158.6c3.2,0,3.7-4.1,3.7-7.1c0-3.2-0.3-7.4-3.7-7.4c-3,0-3.7,4.2-3.7,7.4C47.5,154.5,48.1,158.6,51.2,158.6z
		"/>
	<path fill="#FFFFFF" class="st5" d="M75.1,157.6L75.1,157.6c-0.6,1.2-1.9,3.4-4.9,3.4c-5.3,0-6.9-4.3-6.9-9.6c0-5.5,2-9.6,6.9-9.6
		c3.1,0,4.2,2,4.8,3h0.1V134H79v26.6h-3.9V157.6z M71.2,158.6c3.2,0,3.7-4.1,3.7-7.1c0-3.2-0.3-7.4-3.7-7.4c-3,0-3.7,4.2-3.7,7.4
		C67.5,154.5,68.1,158.6,71.2,158.6z"/>
	<path fill="#FFFFFF" class="st5" d="M83.3,151.5c0-6.2,2.7-9.6,8.1-9.6s8.1,3.4,8.1,9.6s-2.7,9.6-8.1,9.6S83.3,157.7,83.3,151.5z M91.4,159.4
		c3.5,0,3.9-4.6,3.9-8c0-3.4-0.4-8-3.9-8c-3.4,0-3.9,4.6-3.9,8C87.6,154.8,88,159.4,91.4,159.4z"/>
	<path fill="#FFFFFF" class="st5" d="M113.6,160.8c-0.8,0.2-1.8,0.3-2.7,0.3c-3.7,0-5.8-1.1-5.8-4.7v-12.1h-2.9v-2h2.9V138l3.9-2.4v6.7h5v2h-5v10.6
		c0,2.7,0.3,4,2.8,4c0.6,0,1.3-0.1,1.8-0.3V160.8z"/>
	<path fill="#FFFFFF" d="M137.3,158.1L137.3,158.1c-0.7,1.1-2.3,3-5.2,3c-2.9,0-5-2-5-4.6c0-5.7,7.8-5.9,10.3-6.1v-1.6c0-2,0-5.3-2.6-5.3
		c-2.4,0-2.8,1.9-3,4h-4.1c0.2-2.7,1.3-5.6,7.1-5.6c6,0,6.5,3.4,6.5,6.9v11.8h-3.9V158.1z M137.3,152c-1.6,0.1-6,0.5-6,3.9
		c0,1.7,1,2.7,2.2,2.7c1.4,0,3.8-1.3,3.8-4.4V152z"/>
	<path fill="#FFFFFF" d="M145.5,142.3h3.7l3,13.3h0.1l3.6-13.3h2.8l3.8,13.3h0.1l2.9-13.3h3.3l-4.3,18.4h-3.4l-3.9-12.4h-0.1l-3.5,12.4h-3.4
		L145.5,142.3z"/>
	<path fill="#FFFFFF" d="M182.3,158.1L182.3,158.1c-0.7,1.1-2.3,3-5.2,3c-2.9,0-5-2-5-4.6c0-5.7,7.8-5.9,10.3-6.1v-1.6c0-2,0-5.3-2.6-5.3
		c-2.4,0-2.8,1.9-3,4h-4.1c0.2-2.7,1.3-5.6,7.1-5.6c6,0,6.5,3.4,6.5,6.9v11.8h-3.9V158.1z M182.3,152c-1.6,0.1-6,0.5-6,3.9
		c0,1.7,1,2.7,2.2,2.7c1.4,0,3.8-1.3,3.8-4.4V152z"/>
	<path fill="#FFFFFF" d="M191.9,142.3h3.9v4.7h0.1c1.2-2.5,2.6-4.8,5.9-5.1v4.1c-3.7,0.1-6,1.4-6,6.3v8.4h-3.9V142.3z"/>
	<path fill="#FFFFFF" d="M215.2,157.6L215.2,157.6c-0.6,1.2-1.9,3.4-4.9,3.4c-5.3,0-6.9-4.3-6.9-9.6c0-5.5,2-9.6,6.9-9.6c3.1,0,4.2,2,4.8,3h0.1V134
		h3.9v26.6h-3.9V157.6z M211.4,158.6c3.2,0,3.7-4.1,3.7-7.1c0-3.2-0.3-7.4-3.7-7.4c-3,0-3.7,4.2-3.7,7.4
		C207.7,154.5,208.2,158.6,211.4,158.6z"/>
	<path fill="#FFFFFF" d="M12.3,173h3l2.4,10.6h0.1l2.9-10.6h2.3l3.1,10.6H26l2.3-10.6h2.6l-3.4,14.7h-2.7l-3.1-9.9h-0.1l-2.8,9.9h-2.7L12.3,173z"/>
	<path fill="#FFFFFF" d="M34.5,166.4h3.4v3.1h-3.4V166.4z M34.6,173h3.1v14.7h-3.1V173z"/>
	<path fill="#FFFFFF" d="M42.5,173h3.1v3.5h0.1c0.5-1.1,1.9-3.8,5.2-3.8c2.6,0,3.7,2.2,3.7,4.3v10.7h-3.1v-9.2c0-1.9-0.3-3.5-1.9-3.5
		c-3.1,0-4,4.8-4,6.6v6.1h-3.1V173z"/>
	<path fill="#FFFFFF" d="M59.1,173h3.1v3.5h0.1c0.5-1.1,1.9-3.8,5.2-3.8c2.6,0,3.7,2.2,3.7,4.3v10.7H68v-9.2c0-1.9-0.3-3.5-1.9-3.5
		c-3.1,0-4,4.8-4,6.6v6.1h-3.1V173z"/>
	<path fill="#FFFFFF" d="M86.3,187.2c-1.3,0.5-2.4,0.8-4.3,0.8c-4.1,0-7.3-2.4-7.3-8.3c0-4.1,1.6-7,6.3-7c4.8,0,5.6,3.2,5.6,6h-8.8
		c0,2.9,1.3,7.7,5.7,7.7c1,0,1.9-0.2,2.8-0.6V187.2z M83.5,177.2c0-1.1-0.4-3.3-2.7-3.3c-2.4,0-2.9,2.5-2.9,3.3H83.5z"/>
	<path fill="#FFFFFF" d="M90,173h3.1v3.7h0.1c1-2,2.1-3.9,4.8-4.1v3.2c-3,0.1-4.8,1.1-4.8,5.1v6.7H90V173z"/>
</g>
</svg>
