<?xml version="1.0" encoding="utf-8"?>
<!DOCTYPE svg PUBLIC "-//W3C//DTD SVG 1.1//EN" "http://www.w3.org/Graphics/SVG/1.1/DTD/svg11.dtd">
<svg version="1.1" id="Ebene_1" xmlns="http://www.w3.org/2000/svg" xmlns:xlink="http://www.w3.org/1999/xlink" x="0px" y="0px"
	 width="595.281px" height="841.891px" viewBox="0 0 595.281 841.891" enable-background="new 0 0 595.281 841.891"
	 xml:space="preserve">
<path d="M585.351,132.354c-7.074-6.877-15.674-9.067-25.389-8.978c-174.762,0.096-349.572,0.096-524.429,0c-1.544,0-3.088,0-4.633,0
	c-8.449,0.17-16.454,3.821-22.121,10.091c-6.751,7.057-8.798,15.621-8.78,25.137c0.084,174.763,0.084,349.572,0,524.431
	c0,1.346,0,2.675,0,4.021c-0.215,15.189,12.981,31.439,32.624,31.421c93.582,0,187.163,0,280.745,0
	c0.457,0.003,0.912-0.027,1.365-0.09h99.146c0.426,0.029,0.852,0.029,1.275,0c37.262-0.06,74.52-0.06,111.77,0h35.91
	c2.564-0.007,5.119-0.314,7.613-0.915c14.563-3.446,24.816-16.492,24.725-31.457c0-67.032,0-134.064,0-201.097
	c0-109.441,0-218.878,0-328.308C595.443,147.507,591.88,138.707,585.351,132.354z M178.652,631.504H90.008V343.326h88.608v288.142
	L178.652,631.504z M148.757,301.329c-1.945,0.502-3.917,0.892-5.907,1.167c-2.532,0.323-5.099,0.449-6.554,0.574
	c-25.585,0.244-47.647-17.932-52.303-43.092c-4.794-27.417,12.874-52.069,39.501-57.904c25.966-5.903,52.202,8.736,60.813,33.935
	c9.197,26.062-4.475,54.644-30.537,63.841C152.127,300.429,150.453,300.924,148.757,301.329z M515.65,631.431h-88.859
	c0-0.646,0-1.274,0-1.902c0-50.274,0-100.5,0-150.679c0.225-11.219-1.068-22.416-3.842-33.289
	c-1.502-5.787-4.025-11.26-7.451-16.159c-5.523-7.694-13.859-12.896-23.199-14.472c-10.941-2.234-22.275-1.616-32.91,1.795
	c-13.125,4.273-21.637,13.413-26.646,26.054c-3.299,8.623-5.219,17.712-5.691,26.932c-0.467,7.183-0.664,14.364-0.664,21.547
	c0,45.546,0,91.098,0,136.655v1.993h-90.565V343.38h85.34v38.262c0.691,0.464,1.629,0.278,2.092-0.414
	c0.07-0.105,0.129-0.22,0.17-0.34c7.17-13.198,17.861-24.15,30.883-31.637c12.463-7.518,26.451-12.149,40.938-13.556
	c19.645-2.248,39.541-0.233,58.336,5.907c23.342,7.899,39.5,23.646,49.143,46.216c4.713,11.432,7.965,23.413,9.678,35.659
	c2.336,16.532,3.404,33.22,3.195,49.915c0,52.033,0,104.073,0,156.118v1.939L515.65,631.431z"/>
</svg>
