<?xml version="1.0" encoding="utf-8"?>
<!DOCTYPE svg PUBLIC "-//W3C//DTD SVG 1.1//EN" "http://www.w3.org/Graphics/SVG/1.1/DTD/svg11.dtd">
<svg version="1.1" id="Ebene_1" xmlns="http://www.w3.org/2000/svg" xmlns:xlink="http://www.w3.org/1999/xlink" x="0px" y="0px"
	 width="234.75px" height="108.061px" viewBox="0 0 234.75 108.061" enable-background="new 0 0 234.75 108.061"
	 xml:space="preserve">
<path fill="#AA2438" d="M40.536,38.331c16.365-17.096,31.52-24.36,38.673-23.873c1.638,0.11,2.879,0.605,3.694,1.473
	c1.821,1.934,2.407,4.66,1.742,8.117l-0.044,0.283c-0.026,0.424,0.156,1.29,1.03,1.532c0.614,0.169,1.454-0.193,1.869-0.814
	c6.855-11.278,9.175-20.063,6.201-23.495c-0.779-0.902-2.03-1.414-3.718-1.529c-8.968-0.612-29.355,9.894-47.944,28.522
	c-4.031,4.042-11.427,12.791-11.427,12.791l3.713,3.813C34.325,45.151,38.519,40.438,40.536,38.331"/>
<path fill="#AA2438" d="M84.825,78.638l-0.31,0.157c-1.392,0.74-3.206,1.043-5.393,0.896c-8.827-0.597-22.637-8.388-37.891-21.371
	c-3.688-3.136-10.395-9.884-10.395-9.884h-0.002c-0.439-0.474-2.667-2.961-2.667-2.961c-12.085-13.935-15.234-24.97-12.102-28.667
	c1.374-1.618,3.079-2.032,5.5-2.474c0.459-0.061,2.771-0.408,3.321-1.375c0.377-0.665-0.129-1.438-0.837-1.801
	c-6.74-3.465-12.537-5.447-16.769-5.735C4.434,5.231,2.366,5.81,1.139,7.142c-4.468,4.854,4.414,24.29,22.976,43.121
	c-8.537,12.923-12.449,24.732-9.971,30.142c0.412,0.886,1.043,1.574,1.94,2.056c0.145,0.053,0.255,0.079,0.357,0.085l0.223-0.004
	l0.118-0.063c0.146-0.075,0.457-0.322,0.195-1.011c-0.02-0.042-0.038-0.091-0.055-0.143l-0.048-0.118
	c-2.183-5.455,1.694-15.496,10.643-27.601c1.169,1.112,2.391,2.234,3.642,3.348c20.225,17.953,37.762,25.03,46.638,25.631
	c2.711,0.187,4.85-0.18,6.361-1.092c0.601-0.36,1.096-0.854,1.5-1.515c0.135-0.305,0.255-0.732,0.063-1.046
	C85.544,78.648,85.183,78.528,84.825,78.638"/>
<path fill="#AA2438" d="M78.342,67.789c-5.447,0-7.13-1.979-7.13-7.723V47.59h-4.258v-4.901h4.209v-7.575L77.5,33.43v9.258h5.991
	v4.901H77.5v10.794c0,3.171,0.744,4.06,2.921,4.06c1.041,0,2.18-0.148,3.069-0.396v5.1C81.906,67.542,80.075,67.789,78.342,67.789"
	/>
<path fill="#AA2438" d="M98.783,47.541c-2.821,0-5.594,2.179-5.594,7.229c0,5.05,1.833,7.624,5.496,7.624
	c3.12,0,5.496-2.527,5.496-7.527C104.18,50.115,102.497,47.541,98.783,47.541 M98.141,67.789c-6.982,0-11.486-3.611-11.486-12.376
	c0-7.674,5.099-13.22,12.574-13.22c6.981,0,11.487,3.862,11.487,12.33C110.716,62.245,105.517,67.789,98.141,67.789"/>
<path fill="#AA2438" d="M130.919,67.297V51.552c0-2.575-0.696-4.11-3.021-4.11c-3.219,0-5.744,3.665-5.744,7.973v11.883h-6.339
	V42.689h5.992c0,1.14-0.098,3.069-0.346,4.357l0.049,0.048c1.484-2.919,4.356-4.951,8.366-4.951c5.548,0,7.329,3.565,7.329,7.873
	v17.281H130.919z"/>
<path fill="#AA2438" d="M171.562,67.297h-6.882l-3.563-10.942c-0.546-1.684-0.94-3.416-1.387-5.496h-0.049
	c-0.494,2.277-1.04,4.157-1.687,6.188l-3.119,10.251h-6.533l-7.527-24.608h6.931l2.624,9.309c0.646,2.424,1.337,4.9,1.932,7.425
	h0.051c0.496-2.722,1.091-4.95,1.783-7.13l2.97-9.604h6.09l3.022,9.309c0.888,2.821,1.482,4.999,1.977,7.425h0.1
	c0.497-2.524,0.989-4.702,1.734-7.13l2.771-9.604h6.487L171.562,67.297z"/>
<path fill="#AA2438" d="M192.311,46.798c-2.626,0-4.458,1.931-4.804,4.902h9.06C196.665,48.63,194.981,46.798,192.311,46.798
	 M202.657,56.006h-15.248c-0.051,4.606,2.227,6.835,6.782,6.835c2.424,0,5.052-0.544,7.177-1.535l0.595,4.901
	c-2.624,1.041-5.744,1.582-8.813,1.582c-7.82,0-12.179-3.908-12.179-12.574c0-7.524,4.157-13.071,11.535-13.071
	c7.18,0,10.349,4.902,10.349,10.993C202.854,53.977,202.806,54.968,202.657,56.006"/>
<rect x="208.152" y="31.152" fill="#AA2438" width="6.337" height="36.145"/>
<path fill="#AA2438" d="M229.592,67.789c-5.448,0-7.13-1.979-7.13-7.723V47.59h-4.26v-4.901h4.211v-7.575l6.335-1.683v9.258h5.992
	v4.901h-5.992v10.794c0,3.171,0.746,4.06,2.921,4.06c1.042,0,2.18-0.148,3.071-0.396v5.1
	C233.156,67.542,231.324,67.789,229.592,67.789"/>
<g>
	<path fill="#AA2438" d="M82.197,101.808c0,1.76-0.4,3.052-1.199,3.876c-0.799,0.823-2.029,1.235-3.689,1.235
		c-0.552,0-1.089-0.038-1.613-0.116c-0.523-0.077-1.039-0.187-1.547-0.329v-1.784h0.093c0.285,0.111,0.737,0.249,1.357,0.413
		c0.619,0.164,1.239,0.246,1.858,0.246c0.595,0,1.087-0.071,1.478-0.214c0.391-0.143,0.694-0.341,0.911-0.595
		c0.217-0.241,0.372-0.532,0.464-0.873c0.093-0.341,0.14-0.722,0.14-1.144v-0.947c-0.527,0.421-1.03,0.735-1.51,0.942
		c-0.48,0.208-1.092,0.312-1.835,0.312c-1.239,0-2.223-0.447-2.951-1.343s-1.092-2.157-1.092-3.787c0-0.892,0.125-1.662,0.376-2.31
		s0.593-1.206,1.027-1.677c0.402-0.44,0.892-0.782,1.468-1.027s1.149-0.367,1.719-0.367c0.601,0,1.104,0.061,1.51,0.182
		c0.406,0.12,0.834,0.305,1.287,0.553l0.111-0.446h1.636V101.808z M80.45,100.135v-5.659c-0.465-0.211-0.897-0.361-1.296-0.451
		c-0.4-0.089-0.798-0.135-1.194-0.135c-0.96,0-1.716,0.322-2.268,0.967c-0.552,0.645-0.827,1.58-0.827,2.807
		c0,1.165,0.205,2.048,0.613,2.648c0.409,0.602,1.087,0.901,2.035,0.901c0.508,0,1.018-0.098,1.529-0.292
		C79.553,100.726,80.022,100.465,80.45,100.135z"/>
	<path fill="#AA2438" d="M94.28,102.989h-1.748v-1.152c-0.588,0.465-1.152,0.821-1.691,1.068c-0.539,0.248-1.134,0.372-1.784,0.372
		c-1.09,0-1.939-0.333-2.546-0.999c-0.607-0.666-0.911-1.644-0.911-2.932v-6.738h1.747v5.911c0,0.526,0.025,0.977,0.074,1.352
		c0.05,0.375,0.155,0.695,0.316,0.962c0.167,0.272,0.384,0.471,0.651,0.595c0.266,0.124,0.653,0.187,1.162,0.187
		c0.452,0,0.946-0.118,1.482-0.354c0.536-0.235,1.036-0.536,1.5-0.901v-7.751h1.748V102.989z"/>
	<path fill="#AA2438" d="M99.652,90.871h-1.97v-1.813h1.97V90.871z M99.541,102.989h-1.747V92.608h1.747V102.989z"/>
	<path fill="#AA2438" d="M111.456,102.989h-1.747v-1.087c-0.502,0.434-1.025,0.771-1.571,1.013
		c-0.545,0.241-1.137,0.362-1.775,0.362c-1.239,0-2.223-0.477-2.951-1.432c-0.728-0.953-1.092-2.276-1.092-3.968
		c0-0.88,0.125-1.663,0.376-2.352c0.251-0.688,0.59-1.272,1.018-1.756c0.421-0.471,0.913-0.83,1.473-1.078s1.142-0.372,1.743-0.372
		c0.545,0,1.028,0.058,1.45,0.172c0.421,0.115,0.864,0.293,1.329,0.534v-4.498h1.747V102.989z M109.709,100.433v-5.957
		c-0.471-0.211-0.892-0.356-1.264-0.437c-0.372-0.081-0.777-0.121-1.217-0.121c-0.979,0-1.741,0.341-2.286,1.022
		c-0.545,0.682-0.818,1.647-0.818,2.899c0,1.232,0.21,2.17,0.632,2.812c0.421,0.641,1.097,0.962,2.026,0.962
		c0.496,0,0.998-0.11,1.506-0.33C108.795,101.064,109.269,100.78,109.709,100.433z"/>
	<path fill="#AA2438" d="M116.81,90.871h-1.97v-1.813h1.97V90.871z M116.698,102.989h-1.747V92.608h1.747V102.989z"/>
	<path fill="#AA2438" d="M128.874,102.989h-1.747v-5.91c0-0.478-0.028-0.925-0.084-1.344c-0.056-0.418-0.158-0.744-0.307-0.98
		c-0.155-0.26-0.378-0.453-0.669-0.58s-0.669-0.19-1.134-0.19c-0.478,0-0.976,0.117-1.496,0.353s-1.02,0.536-1.496,0.901v7.751
		h-1.747V92.608h1.747v1.152c0.545-0.452,1.108-0.805,1.691-1.06c0.582-0.254,1.18-0.381,1.793-0.381
		c1.122,0,1.977,0.338,2.565,1.013c0.588,0.676,0.883,1.648,0.883,2.919V102.989z"/>
	<path fill="#AA2438" d="M140.714,101.808c0,1.76-0.399,3.052-1.198,3.876c-0.8,0.823-2.029,1.235-3.689,1.235
		c-0.552,0-1.089-0.038-1.612-0.116c-0.524-0.077-1.04-0.187-1.548-0.329v-1.784h0.093c0.285,0.111,0.737,0.249,1.357,0.413
		c0.619,0.164,1.239,0.246,1.858,0.246c0.595,0,1.087-0.071,1.478-0.214s0.694-0.341,0.911-0.595
		c0.217-0.241,0.371-0.532,0.465-0.873c0.093-0.341,0.139-0.722,0.139-1.144v-0.947c-0.526,0.421-1.029,0.735-1.51,0.942
		c-0.48,0.208-1.092,0.312-1.836,0.312c-1.239,0-2.223-0.447-2.95-1.343c-0.729-0.896-1.092-2.157-1.092-3.787
		c0-0.892,0.125-1.662,0.376-2.31s0.594-1.206,1.027-1.677c0.402-0.44,0.892-0.782,1.468-1.027s1.149-0.367,1.72-0.367
		c0.601,0,1.104,0.061,1.51,0.182c0.406,0.12,0.835,0.305,1.287,0.553l0.112-0.446h1.635V101.808z M138.967,100.135v-5.659
		c-0.464-0.211-0.896-0.361-1.296-0.451c-0.399-0.089-0.798-0.135-1.194-0.135c-0.961,0-1.716,0.322-2.268,0.967
		s-0.827,1.58-0.827,2.807c0,1.165,0.204,2.048,0.613,2.648c0.409,0.602,1.087,0.901,2.035,0.901c0.508,0,1.018-0.098,1.529-0.292
		C138.07,100.726,138.54,100.465,138.967,100.135z"/>
	<path fill="#AA2438" d="M158.356,99.997c0,0.947-0.393,1.726-1.176,2.332c-0.784,0.607-1.854,0.911-3.211,0.911
		c-0.769,0-1.473-0.092-2.114-0.274s-1.179-0.382-1.612-0.6v-1.961h0.093c0.552,0.416,1.165,0.745,1.84,0.99
		c0.676,0.245,1.323,0.367,1.942,0.367c0.769,0,1.369-0.124,1.803-0.372c0.434-0.247,0.651-0.638,0.651-1.171
		c0-0.409-0.118-0.719-0.354-0.93c-0.235-0.21-0.688-0.39-1.357-0.538c-0.247-0.057-0.571-0.121-0.971-0.195
		s-0.764-0.155-1.092-0.242c-0.911-0.241-1.557-0.596-1.938-1.063c-0.382-0.468-0.572-1.043-0.572-1.725
		c0-0.427,0.089-0.83,0.266-1.208c0.176-0.378,0.444-0.716,0.804-1.013c0.347-0.291,0.788-0.522,1.324-0.692
		c0.536-0.171,1.135-0.256,1.798-0.256c0.62,0,1.247,0.076,1.882,0.228c0.636,0.152,1.163,0.337,1.585,0.554v1.867h-0.093
		c-0.446-0.328-0.988-0.605-1.627-0.831c-0.638-0.227-1.264-0.34-1.877-0.34c-0.638,0-1.177,0.123-1.617,0.367
		c-0.439,0.245-0.659,0.609-0.659,1.092c0,0.428,0.133,0.75,0.399,0.967c0.26,0.217,0.682,0.394,1.264,0.53
		c0.322,0.074,0.683,0.148,1.083,0.223c0.399,0.074,0.732,0.143,0.999,0.204c0.812,0.187,1.437,0.505,1.877,0.957
		C158.136,98.634,158.356,99.241,158.356,99.997z"/>
	<path fill="#AA2438" d="M169.76,97.803c0,1.691-0.434,3.026-1.301,4.005c-0.867,0.979-2.029,1.469-3.485,1.469
		c-1.468,0-2.635-0.489-3.499-1.469c-0.864-0.979-1.296-2.313-1.296-4.005s0.432-3.028,1.296-4.011
		c0.864-0.981,2.031-1.473,3.499-1.473c1.456,0,2.618,0.491,3.485,1.473C169.326,94.775,169.76,96.112,169.76,97.803z
		 M167.957,97.803c0-1.345-0.264-2.344-0.79-2.997s-1.258-0.98-2.193-0.98c-0.947,0-1.684,0.327-2.207,0.98
		s-0.785,1.652-0.785,2.997c0,1.301,0.264,2.288,0.79,2.96s1.261,1.008,2.202,1.008c0.93,0,1.659-0.333,2.188-0.999
		C167.692,100.106,167.957,99.117,167.957,97.803z"/>
	<path fill="#AA2438" d="M174.287,102.989h-1.747V88.528h1.747V102.989z"/>
	<path fill="#AA2438" d="M186.389,102.989h-1.747v-1.152c-0.589,0.465-1.152,0.821-1.691,1.068
		c-0.539,0.248-1.134,0.372-1.784,0.372c-1.091,0-1.939-0.333-2.547-0.999s-0.911-1.644-0.911-2.932v-6.738h1.747v5.911
		c0,0.526,0.025,0.977,0.075,1.352c0.049,0.375,0.154,0.695,0.315,0.962c0.167,0.272,0.384,0.471,0.65,0.595
		s0.654,0.187,1.162,0.187c0.452,0,0.946-0.118,1.482-0.354c0.535-0.235,1.036-0.536,1.501-0.901v-7.751h1.747V102.989z"/>
	<path fill="#AA2438" d="M195.273,102.896c-0.328,0.087-0.687,0.158-1.073,0.214c-0.388,0.056-0.732,0.083-1.036,0.083
		c-1.06,0-1.865-0.284-2.416-0.854c-0.552-0.57-0.827-1.484-0.827-2.741v-5.521h-1.181v-1.469h1.181v-2.983h1.747v2.983h3.605v1.469
		h-3.605v4.73c0,0.545,0.012,0.971,0.037,1.277c0.024,0.307,0.111,0.594,0.26,0.859c0.137,0.248,0.324,0.43,0.563,0.544
		c0.238,0.115,0.603,0.172,1.092,0.172c0.285,0,0.582-0.042,0.893-0.125c0.31-0.084,0.532-0.153,0.669-0.209h0.093V102.896z"/>
	<path fill="#AA2438" d="M199.299,90.871h-1.971v-1.813h1.971V90.871z M199.188,102.989h-1.747V92.608h1.747V102.989z"/>
	<path fill="#AA2438" d="M211.529,97.803c0,1.691-0.434,3.026-1.301,4.005c-0.867,0.979-2.029,1.469-3.485,1.469
		c-1.468,0-2.635-0.489-3.499-1.469c-0.864-0.979-1.296-2.313-1.296-4.005s0.432-3.028,1.296-4.011
		c0.864-0.981,2.031-1.473,3.499-1.473c1.456,0,2.618,0.491,3.485,1.473C211.096,94.775,211.529,96.112,211.529,97.803z
		 M209.727,97.803c0-1.345-0.264-2.344-0.79-2.997s-1.258-0.98-2.193-0.98c-0.947,0-1.684,0.327-2.207,0.98
		s-0.785,1.652-0.785,2.997c0,1.301,0.264,2.288,0.79,2.96s1.261,1.008,2.202,1.008c0.93,0,1.659-0.333,2.188-0.999
		C209.462,100.106,209.727,99.117,209.727,97.803z"/>
	<path fill="#AA2438" d="M222.972,102.989h-1.747v-5.91c0-0.478-0.028-0.925-0.084-1.344c-0.056-0.418-0.158-0.744-0.307-0.98
		c-0.155-0.26-0.378-0.453-0.669-0.58s-0.669-0.19-1.134-0.19c-0.478,0-0.976,0.117-1.496,0.353s-1.02,0.536-1.496,0.901v7.751
		h-1.747V92.608h1.747v1.152c0.545-0.452,1.108-0.805,1.691-1.06c0.582-0.254,1.18-0.381,1.793-0.381
		c1.122,0,1.977,0.338,2.565,1.013c0.588,0.676,0.883,1.648,0.883,2.919V102.989z"/>
	<path fill="#AA2438" d="M233.81,99.997c0,0.947-0.393,1.726-1.176,2.332c-0.784,0.607-1.854,0.911-3.211,0.911
		c-0.769,0-1.473-0.092-2.114-0.274s-1.179-0.382-1.612-0.6v-1.961h0.093c0.552,0.416,1.165,0.745,1.84,0.99
		c0.676,0.245,1.323,0.367,1.942,0.367c0.769,0,1.369-0.124,1.803-0.372c0.434-0.247,0.651-0.638,0.651-1.171
		c0-0.409-0.118-0.719-0.354-0.93c-0.235-0.21-0.688-0.39-1.357-0.538c-0.247-0.057-0.571-0.121-0.971-0.195
		s-0.764-0.155-1.092-0.242c-0.911-0.241-1.557-0.596-1.938-1.063c-0.382-0.468-0.572-1.043-0.572-1.725
		c0-0.427,0.089-0.83,0.266-1.208c0.176-0.378,0.444-0.716,0.804-1.013c0.347-0.291,0.788-0.522,1.324-0.692
		c0.536-0.171,1.135-0.256,1.798-0.256c0.62,0,1.247,0.076,1.882,0.228c0.636,0.152,1.163,0.337,1.585,0.554v1.867h-0.093
		c-0.446-0.328-0.988-0.605-1.627-0.831c-0.638-0.227-1.264-0.34-1.877-0.34c-0.638,0-1.177,0.123-1.617,0.367
		c-0.439,0.245-0.659,0.609-0.659,1.092c0,0.428,0.133,0.75,0.399,0.967c0.26,0.217,0.682,0.394,1.264,0.53
		c0.322,0.074,0.683,0.148,1.083,0.223c0.399,0.074,0.732,0.143,0.999,0.204c0.812,0.187,1.437,0.505,1.877,0.957
		C233.589,98.634,233.81,99.241,233.81,99.997z"/>
</g>
</svg>
