<?xml version="1.0" encoding="utf-8"?>
<!DOCTYPE svg PUBLIC "-//W3C//DTD SVG 1.1//EN" "http://www.w3.org/Graphics/SVG/1.1/DTD/svg11.dtd">
<svg version="1.1" id="Ebene_1" xmlns="http://www.w3.org/2000/svg" xmlns:xlink="http://www.w3.org/1999/xlink" x="0px" y="0px"
	 width="595.281px" height="841.891px" viewBox="0 0 595.281 841.891" enable-background="new 0 0 595.281 841.891"
	 xml:space="preserve">
<path fill="#FFFFFF" d="M500.353,397.945c-0.234,2.388-0.377,4.309-0.611,6.23c-1.795,13.52-3.592,27.04-5.279,40.578s-3.447,26.933-5.08,40.291
	c-0.342,2.711-1.455,3.591-4.346,3.591c-23.342-0.126-46.539,0-69.791-0.144c-3.053,0-3.771,0.987-3.771,3.879
	c0.072,74.118,0.072,148.242,0,222.372c0,2.98,0.881,3.807,3.844,3.807c49.209-0.084,98.416-0.12,147.625-0.107
	c2.564-0.008,5.121-0.314,7.613-0.916c14.563-3.446,24.816-16.492,24.725-31.457c0-67.032,0-134.064,0-201.097
	c0-109.441,0-218.877,0-328.307c0.283-9.171-3.324-18.034-9.93-24.401c-7.074-6.877-15.674-9.067-25.389-8.978
	c-174.762,0.096-349.572,0.096-524.429,0c-1.544,0-3.088,0-4.633,0c-8.463,0.193-16.469,3.878-22.121,10.181
	c-6.751,7.057-8.798,15.621-8.78,25.137c0.084,174.763,0.084,349.572,0,524.431c0,1.346,0,2.675,0,4.021
	c-0.215,15.189,12.981,31.439,32.624,31.421c93.582,0,187.163,0,280.745,0c3.178,0,3.951-0.915,3.951-4.004
	c-0.084-74.022-0.084-148.045,0-222.067c0-3.088-0.773-4.021-3.951-4.004c-23.162,0.144-46.324,0-69.486,0
	c-3.986,0-4.004,0-4.004-4.094c0-27.698,0-55.391,0-83.078v-3.591c2.011-0.09,3.591-0.233,5.279-0.251h67.941
	c4.148,0,4.148,0,4.148-4.094c0-18.219,0-36.443,0-54.674c-0.244-12.748,0.754-25.491,2.98-38.046
	c3.268-16.645,9.139-32.319,19.318-45.929c21.025-28.279,50.473-40.381,84.516-42.087c25.596-1.049,51.236-0.101,76.686,2.837
	c1.42-0.146,2.689,0.888,2.836,2.308c0.025,0.255,0.014,0.512-0.035,0.763c0,25.221,0,50.441,0,75.662
	c0,2.514-1.168,2.801-3.215,2.783c-13.178,0-26.357-0.162-39.5,0c-6.479,0.003-12.949,0.423-19.373,1.257
	c-13.324,1.921-23.809,7.972-27.723,21.869c-1.285,4.33-2.002,8.809-2.137,13.322c-0.27,19.858-0.197,39.734-0.252,59.611
	c0,4.362,0,4.381,4.506,4.381h79.381C496.976,397.622,498.556,397.819,500.353,397.945z"/>
<path fill="#FFFFFF" d="M500.353,397.945c-1.797-0.126-3.377-0.323-4.957-0.323h-79.379c-4.506,0-4.523,0-4.506-4.381
	c0-19.877,0-39.735,0.25-59.611c0.135-4.515,0.854-8.992,2.137-13.322c3.916-13.879,14.365-19.948,27.723-21.869
	c6.426-0.834,12.896-1.254,19.375-1.257c13.178-0.18,26.357,0,39.5,0c2.047,0,3.232-0.27,3.215-2.783
	c-0.072-25.221-0.072-50.441,0-75.662c0.275-1.401-0.639-2.761-2.039-3.035c-0.252-0.05-0.508-0.062-0.762-0.035
	c-25.449-2.938-51.09-3.886-76.688-2.837c-34.113,1.688-63.488,13.808-84.514,42.086c-10.18,13.7-16.051,29.285-19.318,45.93
	c-2.227,12.555-3.225,25.298-2.982,38.046c0,18.219,0,36.443,0,54.674c0,4.075,0,4.094-4.146,4.094h-67.996
	c-1.634,0-3.25,0.144-5.279,0.251v3.591c0,27.699,0,55.392,0,83.078c0,4.076,0,4.094,4.004,4.094c23.162,0,46.324,0,69.485,0
	c3.178,0,3.951,0.934,3.951,4.004c-0.084,74.022-0.084,148.045,0,222.067c0,3.089-0.773,4.004-3.951,4.004
	c-93.581-0.084-187.163-0.084-280.744,0c-19.643,0-32.839-16.159-32.624-31.421c0-1.329,0-2.676,0-4.021
	c0-174.763,0-349.572,0-524.431c0-9.57,2.047-18.135,8.78-25.137c5.67-6.263,13.674-9.907,22.121-10.073c1.544,0,3.088,0,4.632,0
	c174.762,0,349.572,0,524.429,0c9.715,0,18.314,2.19,25.389,8.978c6.506,6.331,10.066,15.094,9.822,24.168
	c0,109.441,0,218.877,0,328.308c0,67.031,0,134.063,0,201.096c0.092,14.965-10.162,28.011-24.725,31.457
	c-2.492,0.602-5.049,0.908-7.613,0.916c-49.209,0-98.416,0.035-147.625,0.107c-2.963,0-3.844-0.826-3.844-3.807
	c0.072-74.118,0.072-148.242,0-222.372c0-2.892,0.719-3.896,3.771-3.879c23.342,0.126,46.539,0,69.791,0.144
	c2.891,0,4.004-0.934,4.346-3.591c1.65-13.442,3.346-26.873,5.08-40.291c1.797-13.521,3.592-27.059,5.279-40.578
	C499.974,402.254,500.119,400.315,500.353,397.945z"/>
</svg>
