<?xml version="1.0" encoding="utf-8"?>
<!-- Generator: Adobe Illustrator 19.2.1, SVG Export Plug-In . SVG Version: 6.00 Build 0)  -->
<svg version="1.1" id="Ebene_2" 
width="595.3" height="595.3"
xmlns="http://www.w3.org/2000/svg" xmlns:xlink="http://www.w3.org/1999/xlink" x="0px" y="0px"
	 viewBox="0 0 173.7 131.7" style="enable-background:new 0 0 173.7 131.7;" xml:space="preserve">


<style type="text/css">
	.st0{fill:#8C1F4B;}
	.st1{fill:#FFFFFF;}
	.st2{fill:#E7395A;}
</style>
<rect y="0" class="st0" width="173.7" height="131.7"/>
<g>
	<path class="st1" d="M23.4,81.6v-10c0-1.1,0-2,0.1-3.1l0,0c-0.4,0.9-0.8,1.7-1.2,2.5l-2.7,5h-2.7l-2.6-5c-0.4-0.8-0.8-1.6-1.2-2.5
		l0,0c0,1.1,0.1,1.9,0.1,3.1v10H9.8V63.7h3.7l3.6,7c0.4,0.7,0.7,1.5,1.1,2.3l0,0c0.3-0.8,0.7-1.6,1.1-2.3l3.6-7h3.7v17.9H23.4z"/>
	<path class="st1" d="M36.9,82c-4.6,0-7.1-2.6-7.1-7.7V63.7h3.3v10.4c0,3.6,0.8,5,3.7,5s3.7-1.4,3.7-5V63.7h3.3v10.6
		C43.9,79.5,41.4,82,36.9,82z"/>
	<path class="st1" d="M52.4,82c-2.3,0-4.8-0.3-5.7-0.6v-2.6c1.5,0.1,3.1,0.3,5.4,0.3c2.2,0,3.2-0.6,3.2-2.2c0-1.2-0.5-1.8-2.2-2.6
		l-2.7-1.1c-2.7-1.1-4.1-2.6-4.1-5.2c0-3.5,2.2-4.7,6.4-4.7c2.3,0,4.4,0.4,5.2,0.6v2.6c-1.4-0.1-3.2-0.3-5.1-0.3
		c-2.1,0-3.2,0.4-3.2,1.8c0,1.1,0.5,1.6,2.3,2.4l2.4,1c3.1,1.3,4.4,2.6,4.4,5.6C58.8,80.2,56.4,82,52.4,82z"/>
	<path class="st1" d="M61.3,81.6V63.7h11.4v2.8h-8V71h7.5v2.7h-7.5v5.1h8v2.8H61.3z"/>
	<path class="st1" d="M82.2,82c-4.6,0-7.1-2.6-7.1-7.7V63.7h3.3v10.4c0,3.6,0.8,5,3.7,5c2.9,0,3.7-1.4,3.7-5V63.7h3.3v10.6
		C89.2,79.5,86.7,82,82.2,82z"/>
	<path class="st1" d="M105.9,81.6v-10c0-1.1,0-2,0.1-3.1l0,0c-0.4,0.9-0.8,1.7-1.2,2.5l-2.7,5h-2.7l-2.6-5c-0.4-0.8-0.8-1.6-1.2-2.5
		l0,0c0,1.1,0.1,1.9,0.1,3.1v10h-3.3V63.7H96l3.6,7c0.4,0.7,0.7,1.5,1.1,2.3l0,0c0.3-0.8,0.7-1.6,1.1-2.3l3.6-7h3.7v17.9H105.9z"/>
	<path class="st1" d="M117.8,82c-2.3,0-4.8-0.3-5.7-0.6v-2.6c1.5,0.1,3.1,0.3,5.4,0.3c2.2,0,3.2-0.6,3.2-2.2c0-1.2-0.5-1.8-2.2-2.6
		l-2.7-1.1c-2.7-1.1-4.1-2.6-4.1-5.2c0-3.5,2.2-4.7,6.4-4.7c2.3,0,4.4,0.4,5.2,0.6v2.6c-1.4-0.1-3.2-0.3-5.1-0.3
		c-2.1,0-3.2,0.4-3.2,1.8c0,1.1,0.5,1.6,2.3,2.4l2.4,1c3.1,1.3,4.4,2.6,4.4,5.6C124.1,80.2,121.8,82,117.8,82z"/>
</g>
<g>
	<path class="st1" d="M20.8,105.8l-1.5-5h-5.8l-1.6,5H8.5l5.4-17.9h5l5.4,17.9H20.8z M17.1,93c-0.3-0.9-0.5-1.9-0.6-2.8h-0.2
		c-0.2,1-0.4,1.9-0.6,2.8l-1.5,5h4.5L17.1,93z"/>
	<path class="st1" d="M32.1,106.2c-2.3,0-4.8-0.3-5.7-0.6V103c1.5,0.1,3.1,0.3,5.4,0.3c2.2,0,3.2-0.6,3.2-2.2c0-1.2-0.5-1.8-2.2-2.6
		l-2.7-1.1c-2.7-1.1-4.1-2.6-4.1-5.2c0-3.5,2.2-4.7,6.4-4.7c2.3,0,4.4,0.4,5.2,0.6v2.6c-1.4-0.1-3.2-0.3-5.1-0.3
		c-2.1,0-3.2,0.4-3.2,1.8c0,1.1,0.5,1.6,2.3,2.4l2.4,1c3.1,1.3,4.4,2.6,4.4,5.6C38.5,104.3,36.1,106.2,32.1,106.2z"/>
	<path class="st1" d="M46.3,106.2c-2.3,0-4.8-0.3-5.7-0.6V103c1.5,0.1,3.1,0.3,5.4,0.3c2.2,0,3.2-0.6,3.2-2.2c0-1.2-0.5-1.8-2.2-2.6
		l-2.7-1.1c-2.7-1.1-4.1-2.6-4.1-5.2c0-3.5,2.2-4.7,6.4-4.7c2.3,0,4.4,0.4,5.2,0.6v2.6c-1.4-0.1-3.2-0.3-5.1-0.3
		c-2.1,0-3.2,0.4-3.2,1.8c0,1.1,0.5,1.6,2.3,2.4l2.4,1c3.1,1.3,4.4,2.6,4.4,5.6C52.7,104.3,50.4,106.2,46.3,106.2z"/>
	<path class="st1" d="M62.1,106.2c-4.6,0-7.4-2.5-7.4-8.3v-2.1c0-5.8,2.8-8.3,7.4-8.3c4.5,0,7.4,2.5,7.4,8.3v2.1
		C69.5,103.7,66.7,106.2,62.1,106.2z M66.2,95.8c0-4-1.6-5.4-4-5.4s-4,1.4-4,5.4v2.1c0,4,1.6,5.4,4,5.4s4-1.4,4-5.4V95.8z"/>
	<path class="st1" d="M79.4,106.2c-4.6,0-7.7-1.7-7.7-8.2v-2.4c0-6.4,3-8.1,7.7-8.1c1.6,0,3.7,0.3,4.5,0.5v2.7
		c-1.2-0.1-2.9-0.2-4.3-0.2c-3,0-4.5,1.1-4.5,5.2V98c0,4.1,1.5,5.2,4.5,5.2c1.4,0,3.1-0.1,4.3-0.2v2.7
		C83.1,105.9,81,106.2,79.4,106.2z"/>
	<path class="st1" d="M86.2,105.8v-18h3.4v17.9L86.2,105.8L86.2,105.8z"/>
	<path class="st1" d="M104.1,105.8l-1.5-5h-5.8l-1.6,5h-3.5l5.4-17.9h5l5.4,17.9H104.1z M100.4,93c-0.3-0.9-0.5-1.9-0.6-2.8h-0.2
		c-0.2,1-0.4,1.9-0.6,2.8l-1.5,5h4.5L100.4,93z"/>
	<path class="st1" d="M115.6,90.6v15.1h-3.4V90.6h-5.4v-2.8H121v2.8H115.6z"/>
	<path class="st1" d="M123.2,105.8v-18h3.4v17.9L123.2,105.8L123.2,105.8z"/>
	<path class="st1" d="M136.7,106.2c-4.6,0-7.4-2.5-7.4-8.3v-2.1c0-5.8,2.8-8.3,7.4-8.3s7.4,2.5,7.4,8.3v2.1
		C144,103.7,141.2,106.2,136.7,106.2z M140.7,95.8c0-4-1.6-5.4-4-5.4s-4,1.4-4,5.4v2.1c0,4,1.6,5.4,4,5.4s4-1.4,4-5.4V95.8z"/>
	<path class="st1" d="M156.9,105.8l-5.7-10.7c-0.4-0.8-0.9-1.8-1.4-2.7l0,0c0,1,0.1,2.1,0.1,3.2v10.1h-3.1V87.8h3.9l5.7,10.4
		c0.4,0.8,1,1.9,1.4,2.7l0,0c-0.1-1.1-0.1-2.3-0.1-3.4v-9.8h3.1v17.9h-3.9V105.8z"/>
</g>
<g>
	<path class="st2" d="M13.5,124c-2.9,0-4.8-1.1-4.8-5.1v-1.5c0-4,1.9-5.1,4.8-5.1c1,0,2.3,0.2,2.8,0.3v1.7c-0.7-0.1-1.8-0.1-2.7-0.1
		c-1.9,0-2.8,0.7-2.8,3.2v1.5c0,2.6,0.9,3.2,2.8,3.2c0.9,0,1.9-0.1,2.7-0.1v1.7C15.8,123.9,14.5,124,13.5,124z"/>
</g>
<g>
	<path class="st2" d="M22.1,124c-2.8,0-4.6-1.5-4.6-5.2v-1.3c0-3.6,1.8-5.1,4.6-5.1s4.6,1.5,4.6,5.1v1.3
		C26.7,122.5,24.9,124,22.1,124z M24.6,117.6c0-2.5-1-3.3-2.5-3.3s-2.5,0.8-2.5,3.3v1.3c0,2.5,1,3.3,2.5,3.3s2.5-0.8,2.5-3.3V117.6z
		"/>
</g>
<g>
	<path class="st2" d="M35.1,123.8l-2.5-4.1c-0.3,0-0.6,0-1,0h-1v4.1h-2v-11.1c1,0,2-0.1,3.1-0.1c2.7,0,4.9,0.5,4.9,3.5v0.1
		c0,1.7-0.7,2.6-1.9,3.1l2.6,4.5H35.1z M34.6,116.1c0-1.7-1.2-1.7-3.9-1.7v3.7c0.4,0,0.8,0,1.2,0C33.7,118,34.6,117.6,34.6,116.1
		L34.6,116.1z"/>
	<path class="st2" d="M42.1,119.8c-0.4,0-0.8,0-1.2,0v4h-2v-11.1c1.1-0.1,2.1-0.1,3.1-0.1c2.7,0,4.9,0.5,4.9,3.5v0.2
		C46.9,119.2,44.7,119.8,42.1,119.8z M44.9,116.1c0-1.7-1.2-1.7-3.6-1.7H41v3.7c0.4,0,0.8,0,1.2,0c1.8,0,2.7-0.3,2.7-1.8
		C44.9,116.3,44.9,116.1,44.9,116.1z"/>
</g>
<g>
	<path class="st2" d="M52.9,124c-2.8,0-4.6-1.5-4.6-5.2v-1.3c0-3.6,1.8-5.1,4.6-5.1s4.6,1.5,4.6,5.1v1.3
		C57.5,122.5,55.8,124,52.9,124z M55.4,117.6c0-2.5-1-3.3-2.5-3.3s-2.5,0.8-2.5,3.3v1.3c0,2.5,1,3.3,2.5,3.3s2.5-0.8,2.5-3.3V117.6z
		"/>
</g>
<g>
	<path class="st2" d="M66,123.8l-2.5-4.1c-0.3,0-0.6,0-1,0h-1v4.1h-2v-11.1c1,0,2-0.1,3.1-0.1c2.7,0,4.9,0.5,4.9,3.5v0.1
		c0,1.7-0.7,2.6-1.9,3.1l2.6,4.5H66z M65.5,116.1c0-1.7-1.2-1.7-3.9-1.7v3.7c0.4,0,0.8,0,1.2,0C64.6,118,65.5,117.6,65.5,116.1
		L65.5,116.1z"/>
</g>
<g>
	<path class="st2" d="M77,123.8l-1-3.1h-3.6l-1,3.1h-2.1l3.4-11.1h3.1l3.4,11.1H77z M74.7,115.9c-0.2-0.6-0.3-1.2-0.4-1.8h-0.1
		c-0.1,0.6-0.2,1.2-0.4,1.8l-0.9,3.1h2.8L74.7,115.9z"/>
	<path class="st2" d="M84.4,114.4v9.4h-2.1v-9.4H79v-1.7h8.8v1.7H84.4z"/>
	<path class="st2" d="M89.4,123.8v-11.1h7.1v1.7h-5v2.8h4.7v1.7h-4.7v3.2h5v1.7C96.5,123.8,89.4,123.8,89.4,123.8z"/>
</g>
<g>
	<path class="st2" d="M109.3,123.8v-6.2c0-0.7,0-1.2,0.1-1.9l0,0c-0.2,0.6-0.5,1-0.8,1.5l-1.7,3.1h-1.7l-1.6-3.1
		c-0.3-0.5-0.5-1-0.8-1.5l0,0c0,0.7,0.1,1.2,0.1,1.9v6.2h-2v-11.1h2.3l2.2,4.4c0.2,0.4,0.5,0.9,0.7,1.4l0,0c0.2-0.5,0.4-1,0.7-1.4
		l2.3-4.3h2.3v11.1L109.3,123.8L109.3,123.8z"/>
	<path class="st2" d="M113.6,123.8v-11.1h7.1v1.7h-5v2.8h4.7v1.7h-4.7v3.2h5v1.7C120.7,123.8,113.6,123.8,113.6,123.8z"/>
	<path class="st2" d="M131,123.8v-6.2c0-0.7,0-1.2,0.1-1.9l0,0c-0.2,0.6-0.5,1-0.8,1.5l-1.7,3.1H127l-1.6-3.1
		c-0.3-0.5-0.5-1-0.8-1.5l0,0c0,0.7,0.1,1.2,0.1,1.9v6.2h-2v-11.1h2.3l2.2,4.4c0.2,0.4,0.5,0.9,0.7,1.4l0,0c0.2-0.5,0.4-1,0.7-1.4
		l2.3-4.3h2.3v11.1L131,123.8L131,123.8z"/>
</g>
<g>
	<path class="st2" d="M138.5,123.9c-1.3,0-1.8,0-3.2-0.1v-11.1c1.5-0.1,2-0.1,3.3-0.1c3,0,4.8,0.5,4.8,3v0.1c0,1-0.4,1.9-1.4,2.3
		c1.1,0.4,1.5,1.4,1.5,2.4v0.2C143.5,123.3,141.4,123.9,138.5,123.9z M141.4,115.7c0-1.3-1-1.4-2.8-1.4h-1.2v3h1.9
		C141,117.3,141.4,116.7,141.4,115.7L141.4,115.7z M141.4,120.4c0-1-0.5-1.6-2.2-1.6h-1.9v3.3h0.6c2.3,0,3.5,0,3.5-1.6L141.4,120.4
		L141.4,120.4z"/>
</g>
<g>
	<path class="st2" d="M145.4,123.8v-11.1h7.1v1.7h-5v2.8h4.7v1.7h-4.7v3.2h5v1.7C152.5,123.8,145.4,123.8,145.4,123.8z"/>
</g>
<g>
	<path class="st2" d="M160.9,123.8l-2.5-4.1c-0.3,0-0.6,0-1,0h-1v4.1h-2v-11.1c1,0,2-0.1,3.1-0.1c2.7,0,4.9,0.5,4.9,3.5v0.1
		c0,1.7-0.7,2.6-1.9,3.1l2.6,4.5H160.9z M160.4,116.1c0-1.7-1.2-1.7-3.9-1.7v3.7c0.4,0,0.8,0,1.2,0
		C159.5,118,160.4,117.6,160.4,116.1L160.4,116.1z"/>
</g>
</svg>
