<svg width="512" height="512" viewBox="0 0 512 512" fill="none" xmlns="http://www.w3.org/2000/svg">
<rect width="512" height="512" fill="#EEEEEE"/>
<path d="M433.5 433.051L432.028 433.796C425.419 437.306 416.806 438.744 406.422 438.046C364.511 435.214 298.941 398.255 226.514 336.665C209.004 321.788 177.159 289.776 177.159 289.776H177.149C175.065 287.528 164.486 275.73 164.486 275.73C107.106 209.624 92.1545 157.275 107.025 139.737C113.549 132.061 121.645 130.097 133.14 128C135.319 127.711 146.296 126.065 148.908 121.478C150.698 118.323 148.295 114.656 144.934 112.934C112.932 96.4963 85.4076 87.0939 65.3139 85.7277C51.801 84.8169 41.982 87.5636 36.1562 93.8824C14.942 116.909 57.114 209.111 145.247 298.443C104.713 359.749 86.1388 415.769 97.9044 441.434C99.8606 445.637 102.857 448.9 107.116 451.187C107.804 451.438 108.326 451.562 108.811 451.59L109.869 451.571L110.43 451.272C111.123 450.917 112.6 449.745 111.356 446.476C111.261 446.277 111.175 446.045 111.094 445.798L110.867 445.238C100.502 419.36 118.91 371.727 161.4 314.302C166.95 319.577 172.752 324.9 178.692 330.185C274.721 415.352 357.988 448.924 400.131 451.775C413.003 452.662 423.159 450.921 430.333 446.595C433.187 444.887 435.537 442.544 437.455 439.408C438.096 437.961 438.666 435.935 437.755 434.446C436.914 433.099 435.2 432.529 433.5 433.051Z" fill="#AA2438"/>
<path d="M223.176 241.839C300.878 160.738 372.834 126.278 406.797 128.589C414.574 129.11 420.466 131.459 424.336 135.576C432.982 144.751 435.765 157.683 432.607 174.083L432.398 175.425C432.275 177.436 433.139 181.545 437.289 182.693C440.204 183.494 444.192 181.777 446.163 178.831C478.711 125.33 489.726 83.6546 475.605 67.3736C471.907 63.0946 465.967 60.6657 457.952 60.1202C415.372 57.2169 318.574 107.056 230.312 195.425C211.173 214.6 176.057 256.104 176.057 256.104L193.686 274.193C193.686 274.193 213.599 251.835 223.176 241.839Z" fill="#AA2438"/>
</svg>
