<?xml version="1.0" encoding="utf-8"?>
<!-- Generator: Adobe Illustrator 16.0.0, SVG Export Plug-In . SVG Version: 6.00 Build 0)  -->
<!DOCTYPE svg PUBLIC "-//W3C//DTD SVG 1.1//EN" "http://www.w3.org/Graphics/SVG/1.1/DTD/svg11.dtd">
<svg version="1.1" id="Ebene_1" xmlns="http://www.w3.org/2000/svg" xmlns:xlink="http://www.w3.org/1999/xlink" x="0px" y="0px"
	 width="323.6px" height="619.6px" viewBox="0 0 323.6 619.6" enable-background="new 0 0 323.6 619.6" xml:space="preserve">
<rect x="1.611" y="0.4" fill="#AAAAAA" width="322.089" height="318.5"/>
<g id="Vordergrund">
	<rect x="276.1" y="572.4" fill="#AAAAAA" width="47.602" height="47.601"/>
	<g enable-background="new    ">
		<path fill="#AAAAAA" d="M1.834,361.005c0-3.584-0.112-6.496-0.224-9.07h6.048l0.336,4.199h0.112
			c2.016-3.08,5.208-4.816,9.352-4.816c6.272,0,11.48,5.377,11.48,13.889c0,9.855-6.216,14.615-12.432,14.615
			c-3.416,0-6.272-1.455-7.672-3.641H8.723v14.113H1.834V361.005z M8.723,367.782c0,0.672,0.056,1.287,0.224,1.904
			c0.672,2.799,3.136,4.814,6.048,4.814c4.368,0,6.944-3.639,6.944-9.016c0-4.816-2.352-8.736-6.776-8.736
			c-2.856,0-5.488,2.072-6.16,5.096c-0.168,0.561-0.28,1.178-0.28,1.736V367.782z"/>
		<path fill="#AAAAAA" d="M34.594,360.726c0-3.695-0.056-6.328-0.224-8.791h5.992l0.224,5.207h0.224
			c1.344-3.863,4.536-5.824,7.448-5.824c0.672,0,1.063,0.057,1.624,0.168v6.496c-0.561-0.111-1.177-0.225-2.017-0.225
			c-3.304,0-5.544,2.129-6.16,5.209c-0.112,0.615-0.224,1.344-0.224,2.127v14.113h-6.888V360.726z"/>
		<path fill="#AAAAAA" d="M79.954,365.317c0,10.023-7.056,14.504-14,14.504c-7.729,0-13.664-5.32-13.664-14.055
			c0-8.961,5.88-14.449,14.112-14.449C74.521,351.317,79.954,357.03,79.954,365.317z M59.402,365.597c0,5.266,2.576,9.24,6.775,9.24
			c3.92,0,6.664-3.863,6.664-9.352c0-4.256-1.904-9.127-6.607-9.127C61.362,356.358,59.402,361.062,59.402,365.597z"/>
		<path fill="#AAAAAA" d="M110.754,339.446v32.088c0,2.799,0.112,5.824,0.224,7.672h-6.159l-0.28-4.313h-0.112
			c-1.624,3.023-4.928,4.928-8.903,4.928c-6.496,0-11.648-5.543-11.648-13.943c-0.056-9.129,5.656-14.561,12.208-14.561
			c3.752,0,6.439,1.568,7.672,3.584h0.112v-15.455H110.754z M103.866,363.302c0-0.561-0.057-1.232-0.168-1.793
			c-0.616-2.688-2.8-4.871-5.937-4.871c-4.424,0-6.888,3.92-6.888,9.016c0,4.984,2.464,8.625,6.832,8.625
			c2.8,0,5.264-1.904,5.936-4.873c0.168-0.615,0.225-1.287,0.225-2.016V363.302z"/>
		<path fill="#AAAAAA" d="M142.562,371.03c0,3.248,0.111,5.936,0.224,8.176h-6.048l-0.336-4.145h-0.112
			c-1.176,1.961-3.864,4.76-8.736,4.76c-4.983,0-9.52-2.967-9.52-11.871v-16.016h6.888v14.84c0,4.535,1.456,7.447,5.097,7.447
			c2.743,0,4.535-1.961,5.264-3.695c0.224-0.617,0.392-1.346,0.392-2.129v-16.463h6.889V371.03z"/>
		<path fill="#AAAAAA" d="M170.057,378.366c-1.455,0.672-4.313,1.398-7.729,1.398c-8.511,0-14.055-5.432-14.055-13.887
			c0-8.176,5.6-14.561,15.177-14.561c2.52,0,5.096,0.561,6.664,1.289l-1.232,5.15c-1.119-0.504-2.744-1.063-5.207-1.063
			c-5.266,0-8.401,3.863-8.346,8.848c0,5.6,3.641,8.791,8.346,8.791c2.406,0,4.088-0.504,5.432-1.063L170.057,378.366z"/>
		<path fill="#AAAAAA" d="M183.889,344.149v7.785h6.551v5.15h-6.551v12.041c0,3.303,0.896,5.039,3.527,5.039
			c1.176,0,2.072-0.168,2.688-0.336l0.113,5.264c-1.008,0.393-2.801,0.672-4.984,0.672c-2.52,0-4.648-0.84-5.936-2.238
			c-1.457-1.568-2.129-4.033-2.129-7.617v-12.824h-3.92v-5.15h3.92v-6.16L183.889,344.149z"/>
	</g>
	<g enable-background="new    ">
		<path fill="#AAAAAA" d="M26.979,402.446v32.088c0,2.799,0.112,5.824,0.224,7.672h-6.16l-0.28-4.313H20.65
			c-1.624,3.023-4.928,4.928-8.904,4.928c-6.496,0-11.648-5.543-11.648-13.943c-0.056-9.129,5.656-14.561,12.208-14.561
			c3.752,0,6.44,1.568,7.672,3.584h0.112v-15.455H26.979z M20.091,426.302c0-0.561-0.056-1.232-0.168-1.793
			c-0.616-2.688-2.8-4.871-5.936-4.871c-4.424,0-6.888,3.92-6.888,9.016c0,4.984,2.464,8.625,6.832,8.625
			c2.8,0,5.264-1.904,5.936-4.873c0.168-0.615,0.224-1.287,0.224-2.016V426.302z"/>
		<path fill="#AAAAAA" d="M39.242,430.501c0.168,4.928,4.032,7.057,8.4,7.057c3.191,0,5.487-0.447,7.56-1.232l1.008,4.76
			c-2.352,0.953-5.6,1.68-9.52,1.68c-8.848,0-14.056-5.432-14.056-13.775c0-7.561,4.592-14.672,13.328-14.672
			c8.848,0,11.76,7.281,11.76,13.271c0,1.289-0.112,2.297-0.225,2.912H39.242z M51.227,425.687c0.056-2.521-1.064-6.664-5.656-6.664
			c-4.256,0-6.048,3.863-6.328,6.664H51.227z"/>
		<path fill="#AAAAAA" d="M62.931,435.878c1.567,0.951,4.535,1.959,7,1.959c3.023,0,4.367-1.23,4.367-3.023
			c0-1.848-1.119-2.801-4.479-3.977c-5.32-1.848-7.561-4.76-7.504-7.951c0-4.816,3.976-8.568,10.304-8.568
			c3.024,0,5.656,0.785,7.224,1.625l-1.344,4.871c-1.176-0.672-3.359-1.568-5.768-1.568c-2.464,0-3.809,1.176-3.809,2.857
			c0,1.734,1.288,2.574,4.761,3.807c4.928,1.793,7.224,4.313,7.279,8.344c0,4.928-3.863,8.512-11.088,8.512
			c-3.304,0-6.271-0.783-8.288-1.902L62.931,435.878z"/>
		<path fill="#AAAAAA" d="M93.954,407.317c0,2.072-1.513,3.697-3.92,3.697c-2.296,0-3.809-1.625-3.809-3.697
			c0-2.127,1.568-3.752,3.864-3.752C92.441,403.565,93.897,405.19,93.954,407.317z M86.618,442.206v-27.271h6.943v27.271H86.618z"/>
		<path fill="#AAAAAA" d="M125.873,414.935c-0.112,1.848-0.225,4.088-0.225,7.84v15.455c0,5.713-1.176,9.801-4.031,12.377
			c-2.856,2.52-6.776,3.303-10.528,3.303c-3.472,0-7.168-0.729-9.521-2.184l1.513-5.209c1.735,1.01,4.647,2.072,7.952,2.072
			c4.479,0,7.84-2.352,7.84-8.23v-2.354h-0.112c-1.568,2.408-4.368,4.033-7.952,4.033c-6.775,0-11.592-5.6-11.592-13.328
			c0-8.961,5.824-14.393,12.376-14.393c4.144,0,6.608,2.016,7.896,4.256h0.112l0.28-3.639H125.873z M118.761,425.854
			c0-0.617-0.056-1.289-0.224-1.85c-0.729-2.52-2.688-4.424-5.601-4.424c-3.863,0-6.72,3.361-6.72,8.904
			c0,4.648,2.352,8.4,6.664,8.4c2.576,0,4.815-1.68,5.6-4.145c0.168-0.729,0.28-1.68,0.28-2.463V425.854z"/>
		<path fill="#AAAAAA" d="M132.817,423.054c0-3.137-0.057-5.768-0.225-8.119h6.048l0.336,4.088h0.169
			c1.176-2.129,4.144-4.705,8.68-4.705c4.76,0,9.688,3.08,9.688,11.705v16.184h-6.888v-15.4c0-3.92-1.456-6.889-5.208-6.889
			c-2.744,0-4.647,1.961-5.376,4.033c-0.224,0.615-0.28,1.455-0.28,2.24v16.016h-6.943V423.054z"/>
	</g>
</g>
<rect x="135.7" y="67.5" width="55.101" height="187.801"/>
<rect x="68.4" y="135.601" width="55.1" height="119.6"/>
<circle cx="96.2" cy="95" r="32.1"/>
<rect x="203.1" y="67.5" width="55.102" height="54.7"/>
<rect x="203.1" y="134.9" width="55.102" height="54.7"/>
</svg>
