<svg width="400" height="400" viewBox="0 0 400 400" fill="none" xmlns="http://www.w3.org/2000/svg">
<mask id="mask0" mask-type="alpha" maskUnits="userSpaceOnUse" x="1" y="1" width="397" height="397">
<rect x="199.777" y="23" width="250" height="250" transform="rotate(45 199.777 23)" stroke="#000000" stroke-width="30"/>
</mask>
<g mask="url(#mask0)">
<rect width="400" height="400" fill="#000000"/>
<path d="M149.442 100.91C152.367 30.7294 105.047 -14.9622 199.205 -31.0069C204.151 2.47008 292.116 -10.0454 304.642 -4.22526C328.788 6.99392 280.595 21.4188 276.835 47.3474C273.156 72.7194 314.525 109.637 282.053 117.468C216.396 133.302 222.578 80.0101 149.442 100.91Z" fill="#AF5FFA"/>
<path d="M30.3734 267.145C-12.4103 213.356 -76.6784 209.862 -17.302 137.689C7.79729 159.286 64.853 93.6896 77.8465 89.9726C102.893 82.8078 76.4819 124.344 90.3066 145.932C103.835 167.057 158.081 167.872 139.075 194.462C100.647 248.225 71.0897 204.843 30.3734 267.145Z" fill="#F6FA78"/>
<path d="M305.749 242.408C284.815 315.745 330.442 359.229 213.114 384.092C215.466 349.659 106.468 370.31 92.8338 365.334C66.5511 355.742 128.144 336.547 139.104 309.22C149.828 282.479 109.187 247.617 150.22 236.65C233.187 214.475 212.522 270.507 305.749 242.408Z" fill="#6BFAEE"/>
<path d="M270.694 252.422C194.937 129.723 107.21 208.166 174.574 139.799C215.751 159.2 281.397 96.9862 299.082 93.2204C333.173 85.9613 305.508 125.116 330.551 144.788C355.057 164.038 432.872 163.456 412.16 188.574C370.282 239.36 299.679 299.368 270.694 252.422Z" fill="#FAA278"/>
</g>
</svg>
