<svg width="400" height="400" viewBox="0 0 400 400" fill="none" xmlns="http://www.w3.org/2000/svg">
<mask id="mask0" mask-type="alpha" maskUnits="userSpaceOnUse" x="1" y="1" width="397" height="397">
<rect x="199.777" y="23" width="250" height="250" transform="rotate(45 199.777 23)" stroke="#000000" stroke-width="30"/>
</mask>
<g mask="url(#mask0)">
<rect width="400" height="400" fill="#1a1a1a"/>
<path d="M111.278 393.868C53.6446 331.22 -26.0608 332.616 40.8774 238.179C73.8036 262.628 138.459 176.522 154.181 170.776C184.486 159.699 155.55 213.358 174.547 238.799C193.136 263.694 260.223 259.88 239.107 294.417C196.411 364.25 156.042 313.284 111.278 393.868Z" fill="#F2137B"/>
<path d="M133.531 220.259C65.2434 212.477 17.3288 255.451 8.28033 162.431C41.2992 159.955 35.2602 73.2266 41.8197 61.4106C54.4641 38.6335 65.1587 86.6794 90.1997 92.1693C114.703 97.5413 153.637 59.759 159 92C169.843 157.189 118.268 147.414 133.531 220.259Z" fill="#552D8D"/>
<path d="M316.693 117.979C365.207 198.529 445.243 198.066 364.317 316.96C334.933 285.353 257.518 393.699 240.927 400.742C208.945 414.319 245.816 346.613 230.529 313.974C215.57 282.036 147.817 285.78 174.043 242.243C227.072 154.213 260.012 219.636 316.693 117.979Z" fill="#048ABF"/>
<path d="M262.924 124.695C122.595 91.5018 116.03 209.002 115.32 113.025C158.155 97.6279 160.582 7.21695 170.425 -7.95123C189.398 -37.19 197.522 10.0587 229.141 6.26085C260.081 2.54452 314.693 -52.8907 317.808 -20.4844C324.107 45.0392 316.615 137.395 262.924 124.695Z" fill="#EF4196"/>
<path d="M235.996 277.346C242.649 133.299 125.963 148.59 220.151 130.132C243.209 169.379 332.507 155.033 349.235 161.899C381.48 175.134 336.55 191.861 346.134 222.231C355.511 251.948 420.095 295.36 388.825 304.418C325.598 322.732 233.451 332.46 235.996 277.346Z" fill="#0367A6"/>
</g>
</svg>
